<mxfile host="app.diagrams.net" modified="2021-07-05T10:22:57.648Z" agent="5.0 (Windows NT 10.0; Win64; x64) AppleWebKit/537.36 (KHTML, like Gecko) Chrome/91.0.4472.114 Safari/537.36" etag="CdjL1wM6i5L_0wttfJfs" version="14.8.1" type="github" pages="2">
  <diagram id="NOM_LdWpD41W4awPQ11B" name="外部分享流程">
    <mxGraphModel dx="1422" dy="762" grid="1" gridSize="10" guides="1" tooltips="1" connect="1" arrows="1" fold="1" page="1" pageScale="1" pageWidth="827" pageHeight="1169" math="0" shadow="0">
      <root>
        <mxCell id="0" />
        <mxCell id="1" parent="0" />
        <mxCell id="ltOdXQeGYq272rGDrDJT-3" value="" style="edgeStyle=orthogonalEdgeStyle;rounded=0;orthogonalLoop=1;jettySize=auto;html=1;" parent="1" source="ltOdXQeGYq272rGDrDJT-1" target="ltOdXQeGYq272rGDrDJT-2" edge="1">
          <mxGeometry relative="1" as="geometry" />
        </mxCell>
        <mxCell id="ltOdXQeGYq272rGDrDJT-1" value="企业微信内嵌版" style="rounded=1;whiteSpace=wrap;html=1;" parent="1" vertex="1">
          <mxGeometry x="160" y="200" width="120" height="60" as="geometry" />
        </mxCell>
        <mxCell id="ltOdXQeGYq272rGDrDJT-5" value="" style="edgeStyle=orthogonalEdgeStyle;rounded=0;orthogonalLoop=1;jettySize=auto;html=1;" parent="1" source="ltOdXQeGYq272rGDrDJT-2" target="ltOdXQeGYq272rGDrDJT-4" edge="1">
          <mxGeometry relative="1" as="geometry" />
        </mxCell>
        <mxCell id="ltOdXQeGYq272rGDrDJT-2" value="复制短链" style="whiteSpace=wrap;html=1;rounded=1;" parent="1" vertex="1">
          <mxGeometry x="160" y="340" width="120" height="60" as="geometry" />
        </mxCell>
        <mxCell id="ltOdXQeGYq272rGDrDJT-7" value="" style="edgeStyle=orthogonalEdgeStyle;rounded=0;orthogonalLoop=1;jettySize=auto;html=1;" parent="1" source="ltOdXQeGYq272rGDrDJT-4" edge="1">
          <mxGeometry relative="1" as="geometry">
            <mxPoint x="430" y="510" as="targetPoint" />
          </mxGeometry>
        </mxCell>
        <mxCell id="ltOdXQeGYq272rGDrDJT-12" value="" style="edgeStyle=orthogonalEdgeStyle;rounded=0;orthogonalLoop=1;jettySize=auto;html=1;" parent="1" source="ltOdXQeGYq272rGDrDJT-4" target="ltOdXQeGYq272rGDrDJT-11" edge="1">
          <mxGeometry relative="1" as="geometry" />
        </mxCell>
        <mxCell id="ltOdXQeGYq272rGDrDJT-4" value="增加&amp;nbsp;agentId&amp;nbsp;&lt;span&gt;生成短链&lt;/span&gt;" style="whiteSpace=wrap;html=1;rounded=1;" parent="1" vertex="1">
          <mxGeometry x="160" y="480" width="120" height="60" as="geometry" />
        </mxCell>
        <mxCell id="ltOdXQeGYq272rGDrDJT-8" value="" style="shape=image;verticalLabelPosition=bottom;labelBackgroundColor=#ffffff;verticalAlign=top;aspect=fixed;imageAspect=0;image=data:image/png,iVBORw0KGgoAAAANSUhEUgAABAQAAAFqCAYAAACNoYhiAAAgAElEQVR4Aey934tlWXbnlxq/jGcwSIhp7EYzUPFkvVpmwMxgDxjsfyBmJNoPJgKsB+OnalBLd4xfiopUq3uollSqhiKRHiQQQVIUVEIGXS1Pqa1mrFZWRTuV0gjK1dP9UMpSBq62n+p1m7X3/u699j773Lg34sbNGzc+CZHnnP1j7bU+e51z71pnn3PvBf5BAAIQgAAEIAABCEAAAhCAAAQgcOcI3LtzFmMwBCAAAQhAAAIQgAAEIAABCEAAAoGEAE4AAQhAAAIQgAAEIAABCEAAAhC4gwRWSwg8fxQWR0fhyP0t3nv+8nFJr7c+fPm6oAEEIAABCEAAAhCAAAQgAAEIQOAWEbg0IfD8vUVMBDQJgOePwpskBG7RNKMqBCAAAQhAAAIQgAAEIAABCECgJXDv1VdfDfp77bXXwhdffFFb7Pod+F3Xr5JkDwIQgAAEIAABCEAAAhCAAAQgsFMEmoTAJ5980iin1QFvftQUTw4+fMs/TvBmiAv4FawvFu5xg1wXJTwPjxau3+JRiA8hfPRmWpGwSCsTjt76MEiP8siCHhHQGDqeaEYBBCAAAQhAAAIQgAAEIAABCEAAAiMCJSHw7rvvTuoViKeEwDiAT8mALglgAbqC9RzoS1Z69CDL6pMA9hhCTggcqa7TKo23CI8se6AxSAh0lDiEAAQgAAEIQAACEIAABCAAAQgsJxATAt/85jeHrRTEtysEPgxv2ssFY8Ce993LBuNdfKvrg3UF+j5Z0PezOq0Q6N5RIF20SiDq1I8xtIJCCEAAAhCAAAQgAAEIQAACEIAABHoCMSHw6aef9uXp2AfxpcUgITC6m98H615WX1dkh0FCQEmHtCpAiQESAh4a+xCAAAQgAAEIQAACEIAABCAAgfUI3Pv888+X9tD7AeoqAZ8QqI8RlPrnj8Ije+dAH/T7hEBog/yowEeP0mMA/QqBTk6jT1e31BAqIQABCEAAAhCAAAQgAAEIQAACECgELv3ZQWupu/Jarm/b+jOENSmg+uHd+yYhYFKVFNCLBfN7AfqEgLV0Ly1c5JcNDscoZrEDAQhAAAIQgAAEIAABCEAAAhCAwDICKyUElgmgDgIQgAAEIAABCEAAAhCAAAQgAIHbR4CEwO2bMzSGAAQgAAEIQAACEIAABCAAAQhcmwAJgWsjRAAEIAABCEAAAhCAAAQgAAEIQOD2ESAhcPvmDI0hAAEIQAACEIAABCAAAQhAAALXJkBC4NoIEQABCEAAAhCAAAQgAAEIQAACELh9BEgI3L45Q2MIQAACEIAABCAAAQhAAAIQgMC1CZAQuDZCBEAAAhCAAAQgAAEIQAACEIAABG4fARICt2/O0BgCEIAABCAAAQhAAAIQgAAEIHBtAiQEro0QARCAAAQgAAEIQAACEIAABCAAgdtHgITA7ZszNIYABCAAAQhAAAIQgAAEIAABCFybAAmBayNEAAQgAAEIQAACEIAABCAAAQhA4PYRICFw++YMjSEAAQhAAAIQgAAEIAABCEAAAtcmQELg2ggRAAEIQAACEIAABCAAAQhAAAIQuH0ESAjcvjlDYwhAAAIQgAAEIAABCEAAAhCAwLUJkBC4NkIEQAACEIAABCAAAQhAAAIQgAAEbh+BDSQEnoUHh4fhsPlbhLOL2wPj2dtJ/wdPq84vHi+iTSpTG2/n4vGL3CEzWJwFlVRJ7G2DwMXD43BwdBpukdttA8sNjnEeTg4OwsmTGxwC0RCAAAQgAAEIQAACEIDAjRLYXEJAwfDFWVhYckDHN6r+qsJzwP72s2EHBfsK/q3ROCGgRMeLcLawJIKOr5kQ+Ow0HC8JZs/vzwVeFpSdhPOhVTdUuETXXk8L0o8fbidEJyGw6nxvymcuTwj0/lA1vAinR8fh9LNasu7evOx1JV3e3sY6ODjYmi9frlFtId1Mv4MDx3TJeRrPldg+2XWQryGTc+jJSZUZ99X+YLXkm+ngx7l/jStVHL+71lnZkutmpCS9SzvzW3FKPjxhF8w/na1N4qut8wmxCVeN2c1FnDPPInMaXysHOsqmzLbo0PN29Uk32R1CaHTyNrk2EaDGd+VXnQuTV3Rs53KWXXX18d4cizDQ2ySoveYmtpNt6tOdS1fyBy/L5FV7J7baPHl/CCGoTZrbND9lnjMJ86PkM37+VOZxeV1kq69v901uP1bbYnwkndP5ZDIu03ssZ+OlE59r9Wr0dvPQlDdz5Hn6uWvnobkeuzl9mZ8lrU2X+4LNRfsZM/WvVF/9O+h8KSwTr3p96ziVc7G/LnlPGDOPY5dxdN4kXXq9jXvxa10HbF778fN1M/pxlh25+Xaaz/vn8Vytti2zodrTzoM+aypDr3vRuXYf7HV8ymdcZl0YdXPhObhrVBogyyx9rbTOnfSKtnhO4uf7NeN45lVe5F0Yd+XFnl3RYTAFe1C0+YRAULD8IIzD75dA7emDtIJhYwmBPmFwdxICdqHShaCZyeYLZqqxC0VzoWw6cPAyCGxtTgb+UO21i/1qX0Zqn3Zv1g/bZhs8Sh9Qu+bPnkP8YNYH6lL+hiXZ057Lvszv50DKf8CvQrbRIX25aMdbRUhtY7ZW/p1+tZnbszbJz8RJW2tkvKRPwy6ymfHPJydVh/glp36Jmz23PAfr03FMepyHE82dt+Cya6jJHn6Ra/WPuh2567HTqeHq5ZV9m7tWXtNn6EvOCO2a7WZjkauKNBd1bmv50r3Iv9Urti/ye7236Q82dusb/bzLtonfZP1P3GettWn7V9tsLmqdlbef0RP5Gnhm68+RmSaT4qifs1cNlumtNje9lT3ioG0a1593Lbu23ZyW/jpU/Su2jvMo/6zz1Sbj5uTeQHk5L7LswbVoNKr4xbrGJitJ/M7dtTR9thyH4/t5xeaTk3ByX9fNxKv6azeiyZ9cBz3jrv0koSfeXTsvt+PQzLNvl5OK6TOi16HOZ9Pfhm1kdHr0h7omunKTV/nUcVyTwa61q9eb2iD55HAuIofKK47r2cfPuvNweuTkymdko7ZxwPlzKSZiu8+9qmPdM19LnwNJ73LTyOu6CzpUlfdqb/MJAa0QcMG37sCn5fY1UaC78H4Z/mHs1ycV+uMQgoL8/KiC7u63Mhfh7Hs5GVAeaajjayaln2RYueSoLLXRioBen5mEgHR0LDRms80n1Wm+E1nuJpjjK9tWtunktBNnUpdPODuxTx66u3P+RGxk1ouB9Ily/UVBFbZtTn5fkbLI+nJd7wJ5HadjtRLsKF10i11Oj/P7x+H0YeVRvzzahTCP49pPZXcl8QIj/eoFL14U3YW15dHqJ3vn+6SLtH2xi3cLsv5V906n5tDZ1XzBG5ebnvaha+yOH54mJhMeSR9/n7b1o8ohzuH9U3entNYlexM7MWhUz3cV+rp2rOQPUZb3zzgvGqvlXT8ks785H69Muz6eQfwgGdvU+qzG76xa4v9dy9lDs7fV9bLzIttTGKX5l4w473psw7PLuk6uKUWzJLefo8ThJJw2X0ouSwh0zHX+dLxM16h3Vx5V8mXNNSqfO3E1idmeecW5bDy5XgfKag7TK81l5GTnR+FYQKQdP/6yhEDTrT2f2rl1DYvstn1qIR1tO/WFZn6dyLJrHLyPxwrHKTdMurkvd3M6ZfatX0zlxUBgNBcmV/Ofx57YMGgzx27S111brE7nQeHR7PR6i3W+ftyoP7RzPWdf4uivN6ZjCugb23tmZd7bcaL53bnRyCl8Ur94nufPT815bD+8troVFvrMjT5QdS7itTOrd26Q/U2f+ZrPVmdvYz5P+u8CNk5/HuSy/92+O3yWk04WmPbtpKvzLSuanzPXoQlIs25u5ZvZkWxydd38eGlr7Xt2S2yqMo1jTRZV3azFJf6gz5g++acEaWOTZJ1E7uf3T8K56nt/KMolH5IfaFvZVb1LF+2Y7KPTYJ918h9VaRu/P2pepIsqve/4/ewPRabT3fuG348inYy2zvmAxs6613W0XZs4pvvcbK6tiVk6b/05IuG2nZ8L0639PLS29TNIzJpzUfMdbTwJJ4PPLI3e92vHUiu/9fZ0HPxc7IIOXu092t9cQqAE3AqaE6UUSOcg3CcL/L4LwFdKCORAOwXrLjifC8DnyvNErp4QqO9KqO8PMCEbSAiUL7Hpy0q5COUTQR/Wre+NLwLxRC8XjuUnWSsvjT39gplatRc333NeD2+H77HKvh/PLi5Vr/bCFWW5i/Dlsjt9u4tyGbeT2Vzgmi8C7stD08fGSRfzon//YTRU1s+Zb9CXVw6N/HhR72w0MZeN7evNDvflIfpUF0y1PLye07Hb/v5i37Yt7C/RN9orH4+6+i/VVZeJPPeBV+taHSKn0Reszk/qKKvv1TGtj+OQeeuLUNwWHWq7tn8ObPKXNasrH7pZns4/46X9pG3vS9WGKMdxijVmewkC2i9nrWzH0nQoNli5vmzUOwnFh4rv+XbTa2Gy0ZI6kpWtaRItvS127TieBKq1VTp/C7sliUnfp/eTxE1JRnfXNnM4zYFJI8Pq8nll/TVHE1nG3p1/tb7lkGS3DK1Msm0bP0s0N9rmNvpi3X7eTOVJ5kFMGrY6lDmNyljf7ty0Mbuyak/ml/1mom85Z+o5kWwe/T/Vu4xz4/5gYztfKOdBq6fpozm3mqhfnueWY3u+lnPOzV+RnMv+xq4HXofGh5J+ZWwnx2SPP2tbno0Oms84t8nu5EMzepuysW31Dc+itd3GVbskr54LqltyTSnXruNw3F03CrO409pXfCUybH3cJ5ALw+KbVaqfz3i9aOagtlt7z82X9fXjxPnr5r2ez5mf+2xPY5vt7jPCyW/mopszBY0KPFOKNs/FZ6fxxtSJ+bP1s225zs9Y7MZtWpQ5lB80tfmxhnGdjVnnKH8Pcudj5KXjZvzWH2xEa5tuuNSxvN9GrZyMts7Yd35kdmns2Fn+rORbSs5L/8lclL5p/sr5Xj4r5uci2VJTEbohl3ylnk/tnNVx7FySXu1sRFLu81621Oth9Ue1zXVF7ymr6uO7oMPU4n0o2VxCIL4zIAfG/bP1JVmQA+rFWfj33Uv7QpMgcEF+pNweK4BvVhbYmH+T318Qx3MrATaWEEjJDo1fkwIzCYFVPcRdQKxLexFpv/S3It3Fw1X0/f1xvPhNPgxc59nd8VjW3Mv33ZeVlwtX+aBPPaWf6nXBaS6EoyRJx9DrMdkvHy71AtVelPWh6S/e9SIk3dpnBOf6pA+Oov9lH4im7Kwt0zmQXG3rxbtvO73A2lA2R9UeF3T0OvTHoznIoKfz3o/dHhfd4xeq+kFbvnSVD706k7WPlbW2Wp23ST5U2VQ5ce8yfzDb8xes9oOsk7PCYcum5bC0u3ToWDS2+rpuvtpxbSQbuw3sNX6S6X1fNXkbdVF9y76ZC+k8Yac+9qXDVjNdxC+KaZ6sTrL1Bcx/abF656dSTXNYvlCoIm2jv+QVNO25ri8rzu/arunLZi+3YZA6TBlnQYVDtUtDNH2snZ/DJeeY+qdzpJfbMrS2dZz6BTGOlce0Jb8KsiKrckfQek/lpfGXzIV4ja53kUfLu+pXLIs7Kr94aHd2rY/5rW3ndPL959vcvD/Y2NVGs0N8q4adfh2Xfh6qDHfdGPhM//nRy0njt/pVnabfN2r/Vl8rj+dsp7fJqn3yZ0z0B6d345NpdM1137+5pgyC7tRb9oyuKU6+rRCI16M6N7k2Xg/LZ0UqrP/H60vfx6rTdTT1a+2LtZr33D+uyIjnuPStQ6yzF30hX1fLZ53OuVlBXlcb3yUAus9QL8Lmsozhrs3tvPg5VzCZxoufmeYj+Xn76XngRhv5s6uOn+GT638ap6ys9e1n7PI2xdW0uu5GX672Tj7vc733E++3cWhnQ1s39Y9oj8aOnbNfmL/k8kaGu55a+US/KKOb5yhnOhfl/C28XBs3Tj/P1UZbIZBYtXr48YvwuhMZ9p9ZqTrOy+BaYbVmb+M7kfNL1qFatRd7G04IuKX8cZn8fKDcL8lfPyHQrkSos6HkgfvlgEsSAhNd7J5//OWBOkZ7rMSHkg7zdla9luy5C4i1ai4A3YdrK2X8oTLq7y9gJkMXxPZEbqX7o15mrRvrYPXzfWrvZi9/aGohsO9v+lZd3YVLAjqGKh5um4vdqIXJt+fe/EVr3s4kYXmfov+lY99QQmA0bn9h9m16nlbXfHD5LwCe4YiTsfEsu2Mbyz4E4h0FH/xluVFPf9eqH9uNaXp2X8SL73v7vMpz5b7Nhva9T6++QiD7xH378Gt/SaP4Vfzi477gdfPXjmvG2Bz4cyobKH627caqCPz8OfaxgTt2Otj4dV5y/yd2B+k8nN4/DfUZ1KRX+QI60KHaXDUqe1H/LmEQ57euKmj6x/beN4ukuhP766qkO5tTdlPGWYQ4RD/2QUVna/yC3+rS6Fo1cntJRr02WpXNQSvH6xbv6j1R8sHael6ryZMCY/1MRrKz3kFUD/HzHJZ8VmT2WnZ88mQQbDjR7e6UQ6zfij+488AGlQ84BeM54YK4dI7UYKScA2ojGdpGWd04Vtb563iOBv2ybm17m0v5UvKNolc5N6ecGxnSV9s8jvdJK/LHTf8mqPP6ZEFxk8uH15TK35aV27nix9K1sAk2vOi4P88rzttMEGN22OdPtccxLPwmg11a0OrfNrexyhzlpEG8Pphf+DFtPspn5bx9Vfd2nBKc5zHimJGDzlHXXnPf6+CaxF2168ub49bfIv+j9BnSz6HVtdfGRlA68OeLGz/KLXzUb+p/k7noZJTvH6Nk1oRH9g83T/KhpIHV27XzIn5uDr4txWZVp/m5iCuIdG2JvSrXWR9K0tM1wR7bsf7O3tXOpSnDZFu+dkXbp22mHPJjxC9Nh6L13uxsPiFQXipowXQNzvUsvgX+Z/bzfl2QrqA8PTLQB+RtAN63DTbm4/YVhmoT7+I3qw8Gczepnwb4bUKgvmMgrRKYto+jdDYORk5FzQnVf1il4KdeVLyUegL70noxsNJxG6tp2yUJ8ULgLkapdHpypvLpl49SnuX3F2hfP9lvLo6mdw1wTK9yYTde/YW6Y1hlJzmtHvNMrF+58HTjlPIqvOyVuqaPjaMvxll//+EjRt2X9zRnzt4yis2DK49jpS9rhU+RX8eWTYWf5DW6JtmFk9U5Pyj2qW/mNJFZxncNPdOhzTa2LY1Lzxy2PXW0zB5Xt8SH+i/KkrzsHIltTGbvb7XzWnt2zolx3J/M/Uic2Zfm2fe3lmXeC9ccaHXzNz3XO1+Kw9o41b9Gcx6bNTxaOdansGp0SLJ1HYt623Lzz8wGW8qbx236jFi0Ng9bNDLkG8nHLKwvzKzdpfyTfdJ7/twcX0+jfk6fOH86r1y57Ci65YL+WO3KNtrQBtcjf27m3xJv7lnqZoxmbjVK9T+VaNv0VWH2xRq8uwrbHejc6OebR0YnMXGUvniar6SkWGS59Lwc6b0tf9A4yZio68yXb2+u35+yNV88jonq6o/Jn+uxjVvPYZM3lRNLy2eTH3PS3s9VnIs2Iam+0T759WTMsd7N3dE4Tvt5L5tM/3JNGQVVWYlo5+ia4vooQeX9Lcpv5kZW1W1vn6txn8nJzvIiNHcu2RiyZ9k1pMq9ZM/PyyVNS3Xfx/Qrc9b6a+kzmctaE3n7lUTyD21rUxc0Jv+sLHyj8bWha5GvHzlJFW1qE1blO8lIj4kw00f9a+IoBdojXbs5NnkNx/Z89Od93PdjDfpakffNdK10+unaau+JspV1w39J78hhxEBlDbs0bvIH699+pnidyr4exZC87Cv6fjNUzQrdedG3qedJx7nrsws69Lrvw/ENJARqsJx+erAmBbTEX8kBLb2P5YtF+rlCvYBPQXpc/r8Ii/gzf7oj78bQ4wjWTwG4L8uzVMeqMpoJbMab/mxinxAoKxri4xFKWNR3DBwePgjPpI9sagZ0B+6EstLi7GoST1xlfacnaskG5w8161/Kmi8H6UJR61pZNlz8cCwfElkBOxmHH5jdSSt9y9aP117USpNmx+RVO215nT44ol4lE+1kNWxy30bXrENTpouSxqof1pGdsz+xFCdvT71jPd/H2qe+5cOzY5nkO3vEo7Or+ZArHOoXv6n8OnabwdUAaVu5umyrVXXj+/mvfcRP+i/xByfv2O4Kl7tOSY+eoZUmNhqjzpHVFXtjd2dr/PKnPu3zd/MJgXl/iOK7D6NYduX/nA8Nnr+eik3nhM6DPgPfckhtR18EjKVk9Fz1ZTvOqz9P8pyZvLaPzoesbeSTmDfPV1p/dy75L05JXpYT+3sf0vzlrZcxmfukQ++T6Xxp/bHYEOUlVvVamMZK/dwcuaSkjdSPY/09V+0389hxiDKOTsP0Dk32QzcH1jbpVCUWO+J1oJuL2Mz0F8/Uz/pU3bLthau31/fz5avPRRwx+04dc3BNMf2zra1N9dqq4CnJyXo7Pn2/0fzFOS5zXu0rfUtd53fls7Pl4G2a94e2Tw286nzI9lQy/X9+7qsNqVc7Vu8vIzmJ68h3eh/3Yw3OmeJDfb/WbxNrL8s09/K6a3X2n3R+2Utypav16eUkCmmM6TWlsb9cq3y7bt6zTc3cOjv7z8bK29tjMqWz6dfNUX5pY+2bbFjn/+K/+fvAKrLaPr1+/rhq0vArxWZPPw95bp52133r01wDWxb9ueG5p3Ota1/Oy8Tbn48p2Ex6eTm6zjfXkcits6HRM1+P/dy75FJB0X8uNO2d7qPPe/PHpr1Jbf1oMq/x3Bjonf3AbC19enu6uWj8QXqMdJIcqyvX32pbHK+cW+58yjKbcZacF3UuWwbNubQLOvjJ36P9DSQENkRDAfllwfOGhttnMXby1RPrupbmi7ze0OrFNSemr9j8/vhDafPj7KPEK7HTB8A6QK7hD1fScR3daLslAvYlYfzFciUFJj5k8rovPysJohEEILBRAjd8bm72e8tGLUcYBHaHwOQ8vKZqV/mud80h6b6bBEgI7Oa8XEurffxgJWC8lkus33lLHxI2r+ku0Nzyt/VV30YP6a07D3X7P4ZDl6mv5fVO8jb0e3ljXDMh0N1JM37lbsfLM4qRIQCBGz439/F7y6VOY5+zM58Xh2W1pLvjGtteI+F6qUI02FkClgiw+ded/A0qaueevqts7mbiBhVE1FYIkBDYCmYGgQAEIAABCEAAAhCAAAQgAAEI7BaB3UkI7BYXtIEABCAAAQhAAAIQgAAEIAABCOw1ARICez29GAcBCEAAAhCAAAQgAAEIQAACEBgTICEw5kIpBCAAAQhAAAIQgAAEIAABCEBgrwmQENjr6cU4CEAAAhCAAAQgAAEIQAACEIDAmAAJgTEXSiEAAQhAAAIQgAAEIAABCEAAAntNgITAXk8vxkEAAhCAAAQgAAEIQAACEIAABMYESAiMuVAKAQhAAAIQgAAEIAABCEAAAhDYawIkBPZ6ejEOAhCAAAQgAAEIQAACEIAABCAwJkBCYMyFUghAAAIQgAAEIAABCEAAAhCAwF4TICGw19OLcRCAAAQgAAEIQAACEIAABCAAgTGBDSQEnoUHh4fhsPlbhLOL8YC7WPri8aLo/+Cp1/BFOFvItgfhma9aZf/iLCyMy9tr95xKf/og6rh4/GJaRwkEIAABCEAAAhCAAAQgAAEIQGBNAptLCCzOQgxVFQTreE2FbqZ5TlrMBOY+IdAE77IlJjtWSQh046j/zLhr2XqVhMBnp+H44CAclL+TcF4GPQ8npfwgnDwpFeHi4bHrcxxOP7O6tr1kHj+8RZmfaiJ7EIAABCAAAQhAAAIQgAAE7jyBzScEgu6qrxJAb4l/DqabYN8NnRICi7CIqwGq3nPlrmu724+zCwmBo9OgkP38/kE4uG8pgYtwenQQSjAfEwc58H9yEg5cn9ZAO0p9fQJh2oYSCEAAAhCAAAQgAAEIQAACENh1AptPCAyC4Gdva9m9bfuA29dpeX2fVOiPQwgKvvOjClrq39ztP1yEs++lpfb1kYY6viZHgf/Z49Q2ycpjLh6EB12iIMjGPHZcxt/pE+1Uu8UiPTowWWnQP27R6tZyS5yasS5beWCBvg/uFez35RbmPzxOCQK1EZzJloTABAkFEIAABCAAAQhAAAIQgAAEbiGBzSUEcnB8aEG4bkmHEFJQmwNdBcgWyPr9EEIJ5GOQ2ycAuuMcfDeBuyUaFJT3gfJceZ6wkhC4cEv+s36Lx8/yewRaG/Qsf7Iv29yPIxv1+ESuT307m4KSA3mcpq04HobrJARshUBcFWBBf1wp4Dy2lKWA3x4JKCsIXDNWCDQwOIAABCAAAQhAAAIQgAAEIHBrCWwuIRCDXgW1SgrouFsFsDgL/z6/yE939tsEQR8st8ejO+cxEfE3+SV+/Z34PlDvpqsmBBR4PwhnUT+zox27JC5KAiTZFu3ox1FCQAkKX9/XleRJYtckGkzfLkHQmTA+7N8hoCRACf5dt0mZEgN6h4DaskJAJNhCAAIQgAAEIAABCEAAAhC4zQQ2nBCogWt6Xj8nBHSH3JFSYH31hICSDk5o3FUAvyRQ77r4hEAKvPP7BKLekpfu3E/09rJ8wG/lfdDv6/u6m0oI+EcGpOuyRwbUJm/jCwaVSIhlJAQ6RBxCAAIQgAAEIAABCEAAAhC4lQQ2nxAoLxX0d9cPgw/8z+yn/XxwPHlkQHfqFfRrpUEblNeXBL4IZ4/bn/ZT4B6X2A+Cbz9bTUKgLN3Py/OLPe1S/kOX5Hj2uPuFBa0I6MdtbG4TDUHjZrmN/iVZcL1HBqrNXVAfVxL0KwFS6/oiQvXu+qqYLQQgAAEIQAACEIAABCAAAQjcKgI3kBBw7wNo7rDXxwaUHGiW/uvFe30wHZfmz/0CQJUZkwMKuLWcX7JcQO1faqiZahMCfTKiD9xdMkPj+ORAeYHig/BsaULARleiQ3bkpENUTOOmusViEezFiNd5h4DsjdvmccQVeqAAACAASURBVIKaDGh/cvBg8IsDJAQajhxAAAIQgAAEIAABCEAAAhC4pQQ2kBDYkOV98LwhsYiBAAQgAAEIQAACEIAABCAAAQhAYEqAhMCUCSUQgAAEIAABCEAAAhCAAAQgAIG9J0BCYO+nGAMhAAEIQAACEIAABCAAAQhAAAJTAruTEJjqRgkEIAABCEAAAhCAAAQgAAEIQAACN0SAhMANgUUsBCAAAQhAAAIQgAAEIAABCEBglwmQENjl2UE3CEAAAhCAAAQgAAEIQAACEIDADREgIXBDYBELAQhAAAIQgAAEIAABCEAAAhDYZQIkBHZ5dtANAhCAAAQgAAEIQAACEIAABCBwQwRICNwQWMRCAAIQgAAEIAABCEAAAhCAAAR2mQAJgV2eHXSDAAQgAAEIQAACEIAABCAAAQjcEAESAjcEFrEQgAAEIAABCEAAAhCAAAQgAIFdJkBCYJdnB90gAAEIQAACEIAABCAAAQhAAAI3RICEwA2BvUzsB3/3p+GX/89fCf/z//W/hP/ph78a962MfxCAAAQgAAEIQAACEIAABCAAgW0Q2ExC4OmDcHh4WP8WZ+HFNrRfZYxet8MH4dkq/Xybi7OwMPveXrunl1L2/9e/+t/CN378zfD+//N++O7n341/f/L5n4R/8+N/E6yOfxCAAAQgAAEIQAACEIAABCAAgZsmcP2EgAJuFyw/e6yEwLPwYOVAep22q2F58XgRkxSLxzU98eLx2UtNCHxw8afhn//gn4ff/PFvhq//5Ovht378W+G3fpL+vvGTb4T/7sP/Plib8b+LcHp0EA4O0t/JE9fqs9NwnMsPjk7Dhas6vz/Tx7Xpdy8eHpdxvDwrP34o6efh5OAgNHr0gjiGAAQgAAEIQAACEIAABCAAgZ0kcO2EgILuB08H9g2SBYNWqWidtrNCXMUm7+pvUNYvfe+fhn/0Z/8o/Ku//FfhXz79l+GX//KXwy8//eXwK3/5K/HvlX/3SrA2w39PTmow/uQkHBychPPY0ALz43D6WeoVg/n7qcbvh9C2G45hhY3sEGJCwclTQsDKSQbMUqQCAhCAAAQgAAEIQAACEIDAThO4dkIgKJA/PAz+TrwvT48T2FL9vAqgPF6wCGd2s9nJmLQtjx/kvjru+vQJiaWJijglL8LZwj3mcJh1ydOl/s2jEGUVRNc366Q+DYdu+v/++/8w3Pu398I/+OAfhF/4P34hvPJnr8S/f/Jn/yT83Pd+LtbdO/uPul6jQwvuc0LAAvgcsFvLtCLA6mxFQU0UhLyKQAH9SKr6t4F+HausEOjGnJNFOQQgAAEIQAACEIAABCAAAQjsJoHrJwRCCAqEFTyX4FxBewmkHYT+rvukbZcAUDLBgm/1VXLAidWudCq6qCJvn71tyQAlARTg52PJz3pLVnqHQG6rsbPelgRQu2UJgf/4T1JCwJICc39//7v/sNN2cGgBeX40oATpMQFwEI4fnuZkQQ3kddf/tFnyP5DbJxFik5pYSGOdhpPusYSRJMogAAEIQAACEIAABCAAAQhAYHcJbCQhIPNSkG2Bdn5x3yTIt5bdKoEusK4v7luSEGhkKKiXFmmr4HycEOhl16SGtZ/09QkC7ZdVDnmVwSjp0aoUj37pB/+0JAJ+5oN74Wc++Jn4d++DmiD4Fx/+t4Oerije6a93/lOQfh7fL5Du7CsRkLfD5IGT1+zW4L8W1zIbK77DgIRAxcMeBCAAAQhAAAIQgAAEIACBW0hgowkBs7+5894lBBRop6C/C8q7tiVxoISBkgDlWGOlgHxyV34iz89ON7Zb5bByQmDFBIAf1fY/+H//NNz7t38vfOnP/5Pwj5/8bPjHT34u/MJf/Gz4hSc/G37+39nqgb8XPvjp3EsFQ9Cy/2ZJvwX8/uV+MWGgRwYOykoCG98eJ9jEIwMxMeAeU+jt5BgCEIAABCAAAQhAAAIQgAAEdpvAtRMCLx4/SO8BiHbmQFsrBHQ3PQfPTbJAdQrwdVwCbS3jz6sNVK/24rok8NeKBZ8s0K8MNLqEbqxO5jCRUR43sHcgnEUGaufHk5p++7X/sAj/+Yf/afgfPvkvw1c++aX49yv/938RfvHD/yx87T/8hm/a7dsd/9GL/LQiIDWfewlgSibUlQWd8HroVhRY4VierRq4PLlQhbIHAQhAAAIQgAAEIAABCEAAArtEYAMJgfTTfnp/QH0uP5mpoDw+RqCg3pbbLxZhEbf6iUJ/x7975KBv7+V0Mnq4CtKrfll2SQLkJf8+wC8rHXKddC3JCiU+2r4a67KEgOn4wf/3p+GfPf2vwr949ovhv/nLXwz/9V/+s1jW6++P08sC608I2qqAcrc/rxKYLudPgXssHyYT/Ah1vxnLrQRIjye0PztYdKjd2YMABCAAAQhAAAIQgAAEIACBHSdw7YTAjtuHehCAAAQgAAEIQAACEIAABCAAAQgMCJAQGEChCAIQgAAEIAABCEAAAhCAAAQgsO8ESAjs+wxjHwQgAAEIQAACEIAABCAAAQhAYECAhMAACkUQgAAEIAABCEAAAhCAAAQgAIF9J0BCYN9nGPsgAAEIQAACEIAABCAAAQhAAAIDAiQEBlAoggAEIAABCEAAAhCAAAQgAAEI7DsBEgL7PsPYBwEIQAACEIAABCAAAQhAAAIQGBAgITCAQhEEIAABCEAAAhCAAAQgAAEIQGDfCZAQ2PcZxj4IQAACEIAABCAAAQhAAAIQgMCAAAmBARSKIAABCEAAAhCAAAQgAAEIQAAC+06AhMC+zzD2QQACEIAABCAAAQhAAAIQgAAEBgRICAygUAQBCEAAAhCAAAQgAAEIQAACENh3AiQE9n2GsQ8CEIAABCAAAQhAAAIQgAAEIDAgsIGEwLPw4PAwHDZ/i3B2MRhtV4suzsIi6//g6TIlX4Szhdn6IDwbNXv6IHJYPH4xqqUMAhCAAAQgAAEIQAACEIAABCCwMwQ2lxBYnIUYBiu41vE2TM1jXjUQf/F4URMabw9D/WzF7UoIXDw8DgcHB+Hg/nk7C09OUrnVHZ2GlLu5CKdHB7Xc6g4OwsmTtuvwyMvrxxp2CCF8dhqO8xhVh7nGtfz8ftLr+OE6GafzcKKxDk6Cp1EYHRyEVuZ8n6vqXq1gDwIQgAAEIAABCEAAAhCAwMsnsPmEQLgkaL4BmxXQXy0hkPVdPAgPlt39j3pfYtsOrRCwwNkC3BjwNkG6Bf4KilMSoA2ENUFWdxxOP9PxzDYG9pIXgsadaZ2LLdiusqc6jnonXS1BsdoYktGOpVLbzo873yclA6q9Xh77EIAABCAAAQhAAAIQgAAEbhOBzScEtELA3Wl/9rZ/pCAvt1e7xaIs1z88XIQHb8/crc/Bdnk0IctXMqCUa2WC5OdHAWaTBW51gWQ1jw10ctI49ZGB1rZkZxxL/WSf9Ors0FgaO8nPj1wM2qrdrD2d980Hvamh1Q8TAnbXv0kkdILzYds/Be2X3vHvZKe7/qsH2XMJgSinrHi4xL5gQf94zNam1m4bY6VVE203jiAAAQhAAAIQgAAEIAABCOwcgc0lBMo7BNr3B6SAuUsCWDBfAub0qIEC3cMY6OtOfJaltkoyKFDukgIlSM7tdZx0aPXSTKRxZ8bpVztID71DIOvRjnMY4nHf1gbM7VMSQDY+CM86e6Ju6q9EQlZYnDSm7JjbLk8I1Lvubf8VVweEdLc+BcgWYB+Ek4en4bgLylvZ6c58SkKk8Y8fns4G531fO14nIRADeNNJjwwoyWErG45Ow2l+BOHArViY7RMyl4f1kYthMmWkNGUQgAAEIAABCEAAAhCAAAR2jMDmEgIxcNULBhV869ivEDgMh9ZWAe9MUO+DeAXBupseQpabg2XVK0jWcVk1MPvCQAXlnX4K+DsdQ5cg8DrGefUJgknfEFL7fqxFOPub+lLD+sJCz0481/eeZQkBC3yHqwDsDv4lQb00icHzE7fEPgfay57wT3fgz+M7C2oyYXy3XuP4rY25WiCeEg7VlnQcx8zvPSh3+4vNS/rEVQWembPbK8g+BCAAAQhAAAIQgAAEIACBW0BgwwmBehc83elvA/eGRxcwK4hXUO+DbdWtmxCo7ZuR68HgzryC9ti303EzCYG54L5NTkh36WPJDbGpBly+N5cQiMmAYdDvgubLxafn8N3d9VAC6yWd+2C8ew/Bkp6xavWEgF/BkKSmZMRFeqlhY399hCAlOaoWpY9WCLj3KvRtay/2IAABCEAAAhCAAAQgAAEI7DaBzScEyl10C3xrkKsA1x4VOLOf9uuCbQX9Cnp9QqBvq6X3ajt3HFciZP7PHudfQXDzoWC76GZ1TZJAd+m7Rx7yCoKxzt0jA3rMIYSg9ilZYoO9CGeP2181UJtiW6fTsN7Z1O+OEgKxrAmGXa9lAX0M3Lu7882KgJRMaO/ep0cJ2pUINfi2kWNyQkv5oyqjPlXHuYRAlNPZ1drvkx02Rn2xoU9kzPfpH1foZFQV2YMABCAAAQhAAAIQgAAEILDzBG4gIeAC37ikvyYFtIR/dPe9D3SbhIBhVKCudxW4QLveuc+PI4za58cL6owo2O/v2Ks8JwGacRdh0fwSQWvbYpFeiBiD+S7hoXFlp1jE5EAzxmGIZeove2cej5DcfhuDWj03n7dxeXwO6uPPEZZ6Ldf3AXMvsf5UYBvw57f1S1YT2JuMmeA+rxKIenRB/FyfGPBrnLh1Ab0SCxNZOeGQ+zW6NyzEINntx2r6xFUC9ecZyyMHA1wUQQACEIAABCAAAQhAAAIQ2GUCG0gI7LJ56AYBCEAAAhCAAAQgAAEIQAACEIDAiAAJgREVyiAAAQhAAAIQgAAEIAABCEAAAntOgITAnk8w5kEAAhCAAAQgAAEIQAACEIAABEYESAiMqFAGAQhAAAIQgAAEIAABCEAAAhDYcwIkBPZ8gjEPAhCAAAQgAAEIQAACEIAABCAwIkBCYESFMghAAAIQgAAEIAABCEAAAhCAwJ4TICGw5xOMeRCAAAQgAAEIQAACEIAABCAAgREBEgIjKpRBAAIQgAAEIAABCEAAAhCAAAT2nAAJgT2fYMyDAAQgAAEIQAACEIAABCAAAQiMCJAQGFGhDAIQgAAEIAABCEAAAhCAAAQgsOcESAjs+QRjHgQgAAEIQAACEIAABCAAAQhAYESAhMCICmUQgAAEIAABCEAAAhCAAAQgAIE9J0BCYM8nGPMgAAEIQAACEIAABCAAAQhAAAIjAhtICDwLDw4Pw2HztwhnF6Ph+jLX9+1nfeVWj5+93dtwGB48vVyF1C/be3EWFsZhcRZeXN51t1o8OQkHByfhfLe0ytpchNOjg3D8cCWnKhZcPDwOB0enYb1epTs7WyFwHk4ODsLJk3UGu5o/rDMCbSEAAQhAAAIQgAAEIHAXCGwuIaAgeI2guAmmXzLtVpcX4WxhCYLLExtNP9n+MpMbn52G46sEwVdICJzfXzeQu+okXy0AvPmEgAWzu5pEuSrrbfcjIbBt4owHAQhAAAIQgAAEIAABEdh8QiAomH4Qlt/zV7vLg24pe5PbJrAPIbx4vIirHi5bJdD3u0kdV5J91YTASsLbRttLCLTj7s4RCYHdmQs0gQAEIAABCEAAAhCAAATWJbD5hMDgLnkKmrUk3xIFSgao7DAsHudF9k8fNI8fxIBcMheLuiR/VBZCmI4VQphp62G1gb30U7LCPdoQH42oyY6mn8YpKwQkJ9v59rOSaCj2lj5/tvKqhBDSXdWDg4Ngf2kpfbqLrjJttcze7pYfPzyNy7NjXVlF4PsN7nbHlQNpnPJIQVPW1Xmok/1W77pM3HQ4DqcP7bEFb1MIwY0lW6rYVp71TW1cebEz9Tq/PzNOFdrujRIspczGOQmn9mhC1Ps4nH7mujvd/aMLa+sgkV5eWZmwhJ25ftHtoHt8wjEq3PJAzTidTdKl3zZ9vB/1jOqqEq9b9YWRDuYTWQ83TusP5+Hk6DSc3pc/rqh3bwfHEIAABCAAAQhAAAIQuEMENpcQKO8QUBCdKKaAOQfQJfi1tQMKll37nAxId+VV/yA8U7/DGoiXIN+VzY416t9NcupbExT1cQGnR+yj5EDSZT4hoH7OPusvXfIjFnUlwkz7Ts8oIgb3M0/Gl2C17ZiCrxqoTe/up8CteYeAySqBZyvPjqYypm1qSUo81MDPxlPQlpMS9zX6VJeU0GhttvFLUGiBYhf8hwEL61PaXWJf0j0FmjZysdfGirqangd5PwffsqEbO/LPdevrEEK0ZTgXS9h1TLwOI57J3pxg8ImNOonjvZ5jM25iVOap42ICC9ci3ftGqi/9c5up/u043tYilh0IQAACEIAABCAAAQhAoCGwuYRADHAVLCsI1rEPtPXSvWkAPA3Krd8inP1NfllfufPuAutStmQsBeGlbcMgHjSBva8e9PVt/X4J9m2cQT+JrX3EwCU61GjZ1gIuF4g2TQcBl9VPA6iml4Vlk+fhL+szDeSSzBjw5jv9JfgeyK/9Lw9CR7pY/xIoNkFotm3Aoo5pbVqbYxApvUvwrTaWGDgOJ/ZiwycnbiVCTbLE1Qw56G9l5bvWLiHQJkaqjLZfW15sbaZunt2EmeexxIc0f1VHDZiC7uEqDiVCYlMxmzKWJL9t50R9lCxaJyFQefm58GOxDwEIQAACEIAABCAAAQhUAhtOCIQQtOQ/Bt85SNcLB+u4wxUCNVBuGo6D60nAvWSsSdtOfnnUQIkMVz/o6/X0+00SYNCvSM2MFo/P4i80lMcHSoMVd0ZBnQ/6nJhJcOjq0q4P4lLJZX2mgdxEqCuYyq/954NaCRjpYmUKTsuScnWw7YBFHdMaTHXy3dN+1u3JaTh5eB5O75+G84fH+a34XX+bD5cQGAfw/R3xTsZUgVgysr/Rb3BHf9JnwKM8ktEE9EmysTK+08RAp6SzO/d0yaXL7WvnxCQYcy39dys63LAT2/q5nOjkOrMLAQhAAAIQgAAEIAABCEQCm08INI8C6A64+wm/i7NwFn/OT3U1CNfy+cNyJ/9FOHs8c7d9EnBL3mCsSdvp7DeBfVMtubqL3yYemn7NOFqxUO2rYlWXV0DElfAaZ9S+9pzs9UGeHZe727X1NICqdWlvELjFhIO769p1sUBuLujtmpYgrwSXUU/dBb5KQuDyPptJCOQA/v5pfD+APf9/fKQguWPmg9CZeTAubQDcyZiCSyWzc7GEg/Vxj1HEAH8Q+I84SY3L/Wb6OIP1qeNebl/LY5zIkT7aTvXqxvFzoU5sIQABCEAAAhCAAAQgAIGGwA0kBOob+g/jygAFuvWxgfYdAW0AXJICeifB3PL7JviWTTNjDduqT9o2gX1bZesH4p38Q+k0eW9BtmEyTtevJDrcyw/L6gnp3vKYqJIDynpnXMFpbRkDv7z0XQH7NIBSewuk3N1Y23dBZAzuSn2XHIhBr/p2dRLvt017r/d8UNuO396xntblBEM3TmSVA+E2+OyCSK+r20/jZPtiYK5ERte/C0J7/ZQMuYoOpk4rT7zn2Vkf7wt+XpvyZhVA7w8axwEZ7I51ixq41QJtx16HusrDbJJf5W32yXYc7w/L56IdmSMIQAACEIAABCAAAQhAwAhsICEAyCsRyMmDKz8ucKVB96lTFwDm4FcJkH2y9M7Z0iVW0qMdSsLcORoYDAEIQAACEIAABCAAgRsjQELgxtAuF5xWJOgxhOVtqR0TmNxhHi2HH3eldKcJ9KsU/GqSnVYc5SAAAQhAAAIQgAAEIHCrCJAQ2PZ06aWL9usJ7a/obVsTxoMABCAAAQhAAAIQgAAEIACBO0yAhMAdnnxMhwAEIAABCEAAAhCAAAQgAIG7S4CEwN2deyyHAAQgAAEIQAACEIAABCAAgTtMgITAHZ58TIcABCAAAQhAAAIQgAAEIACBu0uAhMDdnXsshwAEIAABCEAAAhCAAAQgAIE7TICEwB2efEyHAAQgAAEIQAACEIAABCAAgbtLgITA3Z17LIcABCAAAQhAAAIQgAAEIACBO0yAhMAdnnxMhwAEIAABCEAAAhCAAAQgAIG7S4CEwN2deyyHAAQgAAEIQAACEIAABCAAgTtM4N5PfvKTwB8M8AF8AB/AB/ABfAAfwAfwAXwAH8AH8IG75QP3Pv7448AfDPABfAAfwAfwAXwAH8AH8AF8AB/AB/CBu+UDJARIiJAQwgfwAXwAH8AH8AF8AB/AB/ABfAAfuIM+QELgDk46Wb+7lfVjvplvfAAfwAfwAXwAH8AH8AF8AB8Y+QAJARICZALxAXwAH8AH8AF8AB/AB/ABfAAfwAfuoA+QELiDkz7KDFFGxhAfwAfwAXwAH8AH8AF8AB/AB/CBu+UDJARICJAJxAfwAXwAH8AH8AF8AB/AB/ABfAAfuIM+QELgDk46Wb+7lfVjvplvfAAfwAfwAXwAH8AH8AF8AB8Y+QAJARICZALxAXwAH8AH8AF8AB/AB/ABfAAfwAfuoA+QELiDkz7KDFFGxhAfwAfwAXwAH8AH8AF8AB/AB/CBu+UDlyQEvhO+9ZWvhK80f18Lf/QX+wPpB3/4tWjft86cTX/xR+FrZvOv/VH4wYYSBt95wzjeLLvhGGffmtgnmzWvX/vDH6Rs4KAtFwTnFxvyBZjCFB/AB/ABfAAfwAfwAXwAH8AHdsEH7n300UdLlobkhIAC4xsIlF82BAXHtz4hkOfG2yHbLPD35d/5w5roSEmEWp/6fCt8h+B3yXnBxetln7eMjw/iA/gAPoAP4AP4AD6AD+AD1/eBe7/xG78R3n///Zngp0sIfPyD8Ee/Zne69ydgVNDsA+aPbyDxMbx7v8GgO8l38xLv9n8rfCuuTKgBf3/SyP6ySiDbXo43qGM/NsfXP4FhCEN8AB/AB/ABfAAfwAfwAXwAH7iqD9x79dVXg/39zu/8Tnj27FmXGOgSAgqU3/hOaac7zGn5uQJSJQ7y4wZxhYHKvha+FpMKqc4HngpOJ0vZNe6vfS0t5Y+PMGisj0Pbry7LH+vWOov6XpYQGMvqH6moY3/8cV/XPTIgm6ItXwnikMapjEwv6Zi4+DFkSx7LzYscQno39rkgf1qf52kgSzLZijtbfAEfwAfwAXwAH8AH8AF8AB/AB26vD5SEwO/+7u/OJwRy0No/A5+CyRyYK8B94zthGmQaICUEdLdaxznAzc+vKzBWEByPJTs/utDU5X5f6QLYOd16Z5UsJSGabR5vJVnSMeuR+ih4V3IgH+e2stW3Tfs1QfDxjH2tHUm+5Pk6yRslBIrteiQkJwpin67My2T/9p7wzB1zhw/gA/gAPoAP4AP4AD6AD+AD8oF7v/7rv77iIwNdUDu8A55exPfd/KK+GFyXQF0JgOmdfQtWfVAclfMBtt+3oNUHyaprVg1I17xCQQmNQZCroLgJmCUztr9MVlfv+7jxvH0as0k+5Of8fbuGQ2Nf78BJh3USAmmcr4Q+kWJjxjqnu5yFbc+dY3wCH8AH8AF8AB/AB/ABfAAfwAdurw+s91JBH4grITAXOCqoLoHsDSUE4l1tyU4JgG+d5SB9Tje3ZF7B+aUJgYEs9U1BtR/T7yfn8IG++jVj+rvzk18j6O3rHS6PV5IvtV6Bvx9L44+SAWUlx8BeTvTKFRawwAfwAXwAH8AH8AF8AB/AB/CB2+4Dq/3sYAkOFZja0nft6xGAj4O9jO+P/M/3lccERu1zEKsXFOZkg+5yK2iNgaySCwp4m8REdUL1+doffje//HCZbqmf+viAuX2p4LydPsgf95l5ZED6F64fB735v5HpEhfmaNJVjLzzpX519YXqpgmBjns3huwYjSGZbKvPwQIW+AA+gA/gA/gAPoAP4AP4AD5wW31gzYRADUq/EoPZGixr+bsF1gpCfVm586zl+3GrgDk5kAJe9StB6bKEgIJryVXSoCQj6mMDTdCfA2GN2dRpvBKwj+1U8Bz11QsP1Ucysp3pRYrO3l7v3G+SEOjbFfu6ky63a+zQ8n//s4ONXpWNWCce08TCbXVw9O78pE8AcVxekIqv4Cv4AD6AD+AD+AA+gA/gA3fNBy5JCGzSIRRUE2zelJNNkgnrBnszSYWb0he5mzy/kIU/4QP4AD6AD+AD+AA+gA/gA/jAej5AQmDdoJn23FHFB/ABfAAfwAfwAXwAH8AH8AF8AB/YAx8gIbAHk0gWbL0sGLzghQ/gA/gAPoAP4AP4AD6AD+AD+MDHYYsJARwOh8MH8AF8AB/AB/ABfAAfwAfwAXwAH8AHdsUHSAiwQoClPvgAPoAP4AP4AD6AD+AD+AA+gA/gA3fQB0gI3MFJ35VsFHqQGcUH8AF8AB/AB/ABfAAfwAfwAXzg5fkACQESAmQC8QF8AB/AB/ABfAAfwAfwAXwAH8AH7qAPkBC4g5NOBu7lZeBgD3t8AB/AB/ABfAAfwAfwAXwAH9gVH7gX+AcBCEAAAhCAAAQgAAEIQAACEIDAnSNAQuDOTTkGQwACEIAABCAAAQhAAAIQgAAEQiAhgBdAAAIQgAAEIAABCEAAAhCAAATuIAESAndw0jEZAhCAAAQgAAEIQAACEIAABCBAQgAfgAAEIAABCEAAAhCAAAQgAAEI3EECJATu4KRjMgQgAAEIQAACEIAABCAAAQhAgIQAPgABCEAAAhCAAAQgAAEIQAACELiDBEgI3MFJx2QIQAACEIAABCAAAQhAAAIQgAAJAXwAAhCAAAQgAAEIQAACEIAABCBwBwlckhD4MLx5dBSOmr9FePT89pB6/t4i6v/mR07n54/CwmxaPAqbMuXDt4zTzbIZjpFtWbznLWnnrdj+0ZtTFg4LuxCAAAQgAAEIQAACEIAABCBwdwjc+/zzz5dYmwNLBc43EEgvGXzFqqzjWx8O2+9NQiCzL8G9WZsDfEvY1ITA8/BoYcmJN4MRSfbXREU6TnVDYBRCAAIQgAAEIAABCEAAAhCAwJ0g6xWgUQAAIABJREFUcO9f/+t/HZ49ezZjbJcQCG2wOdNpu8UKivc8IZBWB7hAPiYIFuHNt9IKiJIQUNJGPGaOS/vtzhajQQACEIAABCAAAQhAAAIQgMCOELj36quvBvv7/d///fDFF190anUJgT64DCGkQFWPFdSAVXfmm8cNYpDaJxX64/bOt/XXXfFW5iI8+pO0BL6OUceXIeojGbFcdmjlgxUqsZAfj1D71j5/Jz6zmXucQmPkegXgWva/iHfxs20zY8uGEOZXQcg+yQ8at08IFFszb9XXQdiDAAQgAAEIQAACEIAABCAAgTtEYLWEQAl669JzY9TctfaBqN8vy9aPwtEqCYEcHKeA3CULFDT3gexceZ5EBcw1aaDkhXuHwNyYjSM4XYrt4qHkQD7O9itIVxLA3r2gBIPqSgBfAvZm0HyQ5Jc+ronsq3XSJSVHVO/flxB1WDqeG4BdCEAAAhCAAAQgAAEIQAACENhLAvcWi8WKjwwo0OyDYBdgW+Jg8Sg87V/k1yQI2sA6dI8hKGBuA/hFePQ0vwgwJifcSoAVEwK64x9nUfrkoHh2zPyevrbe7M8sXFCd2iQ2JQgviZTEyHTw7ZJHiau1Edve11KbGvTXeo3V1Mk+P75LpEQdnO5VGnsQgAAEIAABCEAAAhCAAAQgcFcIrPdSwSb4ngbFgqYgtQThClBXWCEwDZgl1bZKJtQAuyz1dwFv06NPTkQx7a8MzI4pvfML+mq7qe21Ti/yq486eH18u2l5sqsJ7mOjPN7ARrGe9snSsw1lLsSQhIDHzz4EIAABCEAAAhCAAAQgAIE7R2C1nx0swaMCcruTrX0X+D5/FB7Zz/s1iYMaIKdHBvq75DnYbd6Kr8cLbD6eh0fvtb8g0ATBCtoHwXLsvUJCQPKkXxkz25GCbdnrbdcdfdmQj2V/4RbCh++lnzicSwhEz1O/gS2pn1sZkV1Vuo8TAtLZ9cu8xu2zUDYQgAAEIAABCEAAAhCAAAQgsPcE1kwIuOA+BrsKONOdbf8CwBTA5vLFIixs+boCXQXxcUn7IqQX7NWgVUFueWzA+ilY1jJ4ySrP89tYVYZmTrLqHXLLMbQrBKyt2jVj6m56o2cO+iVjVGcCe31zcmCSEGjkuPcayABts7zGDqe3D/Ab9h2TZOeUk4ZhCwEIQAACEIAABCAAAQhAAAJ3g8AlCYENQVDQ64L4DUm+U2ImyYR1rZ9JKqwrhvYQgAAEIAABCEAAAhCAAAQgcPsJkBC4/XOIBRCAAAQgAAEIQAACEIAABCAAgbUJkBBYGxkdIAABCEAAAhCAAAQgAAEIQAACt5/AdhICt58TFkAAAhCAAAQgAAEIQAACEIAABPaKAAmBvZpOjIEABCAAAQhAAAIQgAAEIAABCKxGgITAapxoBQEIQAACEIAABCAAAQhAAAIQ2CsCJAT2ajoxBgIQgAAEIAABCEAAAhCAAAQgsBoBEgKrcaIVBCAAAQhAAAIQgAAEIAABCEBgrwiQENir6cQYCEAAAhCAAAQgAAEIQAACEIDAagRICKzGiVYQgAAEIAABCEAAAhCAAAQgAIG9IkBCYK+mE2MgAAEIQAACEIAABCAAAQhAAAKrESAhsBonWkEAAhCAAAQgAAEIQAACEIAABPaKAAmBvZpOjIEABCAAAQhAAAIQgAAEIAABCKxGgITAapxoBQEIQAACEIAABCAAAQhAAAIQ2CsCJAT2ajoxBgIQgAAEIAABCEAAAhCAAAQgsBoBEgKrcaIVBCAAAQhAAAIQgAAEIAABCEBgrwiQENir6cQYCEAAAhCAAAQgAAEIQAACEIDAagRWSgg8f28Rjo6O6t9bH64m/SZbffRm1cd0WzwKz1cdT303bMeHbzlGmdebH62qFO02SeD09DR8+9vf3qRIZC0h8Prrr4f3339/SYvrVz158iTYvN70PxvDxlrn309/+tNgDPgHAQhAAAIQgAAEIACB20Tg0oSAgtwS2D5/FBYW7G44mF4L2iCg//C9nBDI+i3eW5IeyP2XtllLodQ4sVqER3Ho5+HRwhIEOr6CwBvr8mF482XP4Y3ZhuB9JUBCYF9nFrsgAAEIQAACEIAABF4WgXuvvvpq0N9rr70Wvvjii6rLTPDfBr61+bb2tGKhJCncwKrbdLDvhpjd7blIl5Ges0K2UTFIqGxjWMaAwHUIkBC4Dj36QgACEIAABCAAAQhAYEqgSQh88sknTYvZgNbfYff71rs/DrpTnpfTa2m/2i3y4whvfXdyR/2y8e0xBh/4q315vMHGUlJjsUgrG6xMY8dVBNJvERbxjn7Sswbx+W56fgQgyR7f9W8TAlWurRhIdfWRgqK3dCkcPgwTO7Qao7cl6rQIb77lHulQW5sLtc+6xzHzeIXR0ZshPgAyahukd2UTuXQyKqvGfW78wJZpf/WrX23GsccELHC05et+Cbu109+PfvSj2Mf3tT7+EQPbVzsNYMeS4ZeH2zgqt63pZf/6ANYfSz9rr2XwVi85Xr7KbNvrJN22se0Z2Zimk9nb8+p1Nr09X7O5n5+RDdZHsqy9WFnbvk79V+Ho5cgOG8e4W53J0D+Nb1vP38+77fs5U1+2EIAABCAAAQhAAAIQ2GUCJSHw7rvvTvRUYDoJ+BTEWkDt901Cc5yD4j4J4Pr5Z/81XgqWFVDngLXTTm0V2EpHlZeAuwS6Ts5IRy3tV/uscxvkKzmwLCFQg/7x4wKdXVkXz8Gb2ozf6SZb0+Mbkpt1y23FoZGjMZU8WNJWiQzJKUkGzalX9iXs++DNP8dtAZr92T8L1BSk69i21lcBngWXPqDz+1HIQI6VW+Do25o8CxxV5wNPa6tjBZOS3ctR+Zzuqt/21uvj7TF+YunbmH7io63KrI/9s37iEgvyf1bmy62/jm1r4+ufybI5Xsaxb+/9Q3Umw+ZPx3O29OOYPt4+6cUWAhCAAAQgAAEIQAACu0wgJgS++c1vDnVUwKlguzTyAbXftwb+WAFsc3c9v3/AtyuCc8Btwab6KmgtbdodBaxH+U63dJ4EsF5OM7YCaSUMFPTbsdMnD9sE1q0qeRXAOFlgTauuljTI7RpdqkDZ0SQ8OiZqI1u9bqpTf23jXOYx9R6IZW29zKSd+Dgbqtpb37NgUoGlTwJoXwGev8tr+woeFWCaDOtjgZ79KVj0BllbBfsq7wNTKzdZppfJkXwr98fSb5mcZbqr37a3Xm/ZaTpof5nOYmVsTI71sfZWbmX9vz4Y9/ysrp9T1dvW/7Mx+mBdfjOqk56r2KJxRnJUxxYCEIAABCAAAQhAAAK7SiAmBD799NOxfl0AqkZNkNgHtP54pn+U49tJcAmaF+HRe/YrAvPBtevSBOIKbhUklzvaLzMhIA45abGUn5IQ2XbZEwN5ycm2qE62ermqmyRzDNxMQmDU1sucMk+rITS+r9/mvgJHH/QpcL0sULM+FkBaewsSLRicC1BlkwWiGkvBo+psq0BXAarq/LH0U91IzmW6q+82t9LJtman/vmEgNioTtuerzEwJnPt+3LPz+pMh/7fqhylS2+HyZMM2dqPoTYmQ/+WtVUbthCAAAQgAAEIQAACENg1Avc+//zzpTqlgPAolGCxC0r7gFuBaAoSdTfZBfYfPUpv4Z9JCJRg1VYVzCxLf/7em/lN/qa6xsh3+Hu5vb7WpWmzbIWA6qS/xtJxi24ueB6Pl2U0urjn/nPQ3/DvbGlZawVCK9cz7H+JQSsEpN+o7axNjmOR0+LY2pEFlhaQWiCnfz7gtuDRgsnRP+tnfwoubb8PREf9FJD2Aa0Fierv902G19HrZ3W9HI25THe12fZWzDxTK1OAvExnq7O29k/BuI57O6zcOOmf9dUc21b7qrftqhxNtvS3BI90N53sWHVztsjnNLbpYm35BwEIQAACEIAABCAAgdtE4NKfHTRjFHhq2XncumBdQauVL/LL8epdYwXRera+DVhrO2Gr7ad1qc1UHx+gK4jPCYUuiI4SmiBc7UePDLgAPb/AL7140I8nvbuAvBabkPzCxLTMvpHR6JI6jXiuu0LA21nmbThnbSKlbztJCIinHgNxMhuTt3igIE5BnQ3tA27Va4m5D0CtnQ/k5gJNk2ntJMMHqravctv6fzaW6rxsr5/aeznSaZnu6rftrQXLIzvFf5nOxsMH8mangu+RHWJnW+PT9/X16j/iaHW+rbXRP9NbdaaPjSGdLrNF/Uye5kxy2UIAAhCAAAQgAAEIQGDXCayUEOiNqAHrODDu2697nAL+m5G9ri59+2S7kgd9LccQgAAEIAABCEAAAhCAAAQgAIHbQeBKCYGbNS2vEPDP/N/sgKtLz3fzX/YS+dUVpiUEIAABCEAAAhCAAAQgAAEIQGBMYKcSAmXlwQ4sQxeuyeMJu5iokLJsIQABCEAAAhCAAAQgAAEIQAACKxLYqYTAijrTDAIQgAAEIAABCEAAAhCAAAQgAIFrEiAhcE2AdIcABCAAAQhAAAIQgAAEIAABCNxGAiQEbuOsoTMEIAABCEAAAhCAAAQgAAEIQOCaBEgIXBMg3SEAAQhAAAIQgAAEIAABCEAAAreRAAmB2zhr6AwBCEAAAhCAAAQgAAEIQAACELgmARIC1wRIdwhAAAIQgAAEIAABCEAAAhCAwG0kQELgNs4aOkMAAhCAAAQgAAEIQAACEIAABK5JgITANQHSHQIQgAAEIAABCEAAAhCAAAQgcBsJkBC4jbOGzhCAAAQgAAEIQAACEIAABCAAgWsSICFwTYB0hwAEIAABCEAAAhCAAAQgAAEI3EYCJARu46yhMwQgAAEIQAACEIAABCAAAQhA4JoESAhcEyDdIQABCEAAAhCAAAQgAAEIQAACt5EACYHbOGvoDAEIQAACEIAABCAAAQhAAAIQuCaBvUkIXDw8DgcHB+Xv5InInIeTg5NwrkO37fscqN1np+H44DicfqbGJuMgHD+8CCGk/TqWb6f2/bbrc3QaTNLV/iVZ1T6TYmWX6BFtMj5icRFOjw5CkpP2ZZOXPWF0v5Js6ubKbU6Kvaanxg8h9i91suMgHDhZntH5/Tq/w7lQv2JrbW+2RbuenEQfqTa2OvkxapukherS2FXftt0KcxHFWTvTr5u3rJ/mos6XJzHal7xss1iYd2RuVe8QQmGk+VjFH1o/KUyzOnP+oPFlU+E1sdX7Shaa2yTdvY6VgcmXbY0OjW+l9l4X9amS2j2TdVmbtkc+KmzrXES93JzElmbbQMehzI0U1vnTHDR6+fnwevny5nyu8uLcuj7NPJRr50aMQAgEIAABCEAAAhCAwAYJ7FVCoHx5j19gFei0Ad+U3TjI8F+U/X4KviV7Km1c4nVI4xVdxx2Wl3aBRKvfuKsFQhYEWFsbW9vY+slJDXwadrX9VOp5OCkBQApGfZAxts9xsKCp9M/Sox7n4fRowHfUvlFqNI823iDgPjoOxyU4qzq1HH3fKtsHn2Lng7pWRqNgPYgBo9nox8jVxr/oVrss3zM5NSiubef1vpo/mLyOZxls3h80VmxabC8d687E9sTn5H4NzKd8HcPOd23chuWlPlRVsb3mHGmr5o+ifUq0uWYDuye+5JrfyK74ioO2cTCbW513yW/KOax+lyjl7WnZdfIukUM1BCAAAQhAAAIQgMD2CGwvIfD0QTg8PAyLxy+Sdc3xs/Dg8DAcHj4Iz5bYHoMBd4c5fuHPQWX7BdQFCTHoOgmnZQVBH9CkL6sKZuvwufyhrRbQF2WrNdn+uPaIte4udr372/aJdljQ13whz3KaMuvX3uXWl/T65buV3a9gqO2T3ZHT/ZNpMF7MaOW1XEujyY7pI4bzfSTb2PbzYHeyU5mXVQa6NCgx2b3MQVmWo7HqfHY62TwMguzKvWgW78AnzrJPd+BbP5naNa9flZ73RvarzLZ9cqUT0Ost+9fzh45RN4Y/9Lb6/aHPx45T2dK58ac4L46rs70ZJ8p082HH4uUVDXnch2nliN3p1jmTxj2t56BP1Jis5tys51eThChj2Tj1HEl+5/w1+1uRmcdqbJeuceXSnN5TjkH9vpMTf/EacxJOBueg1G3GHXJTS21b+5r+1sTNk3qwhQAEIAABCEAAAhB4+QRuVULAcJUvmvFLbV16X8qtUfPl04KCeqfQ2rVf2Nsvss2U5C/pChBSXZanYMAFCa1s/8XcByZ+vHpXtQQz7su3AqI4bmNTDTgt0eH1azh4Y6x/1Pk4HC8JBFp2iXcJUiYBtwYw+2pwEzmIj2Ov4Nt0VvJAEmKdglrHoC5t94kRFxC6QMpzSHJbvWKZZJdVEZobbbP/HKQkUi+zmRMpH3WYti9zGts5+eo3t0LAs1PyycaIvlb9SnOtbRE72JnofSV/SL5b/EHzNRmv5W5jlz7OT5pumhcV2vEw2efPn/Q4RJqjykUiSiD8NCV3qg6mj3wo21TO4zpPyY/bdslvp/ZVHRT0O1YuuC/XHmffJDngWLRz622c11vJnpoAkU22TXNh14Det1tuskPnQ53D9tytMott/jotofkcqQ8cqYItBCAAAQhAAAIQgMDLJLAjCYF1EOiLdg1ArXf68q4vrfoSbzX6MpzHcF+2U0mS137JdW3dHcNc6japbw0GvE5Wp2P3pbmRJ90sMXAcTuwdBSVQ9cFOn+RIKqRAy9vqvryXAMepqy/qtkIgBgZd3/ilXTq3/eKRsSuBlOo9g1TWBjFqZ9vKYcK7mRdxcX2beldedqd6TAIta1vkWHuzX2PlrdUPA9E00CSwzuPPzoXmoYxbFM48Ot7DdjkBZHp9dpp8JT/+YRzndGpGcs/Z+/I4V1f0h2iz7CtCp/Ng7cp8DwPD1Ke06RIlvT/Fcz2Oa/3Ez+9Lma5syLZro646V+yczP+qHuYrGtfzN1nOVuvnx3S2V1ldm65P0053+v0KgfKeE2mZ9El+YY/GWNK0Jh5jK9PjyFYIpOtl5Z5kjOc1y19yjfD9Wr1rApOEQJ0n9iAAAQhAAAIQgMAuELilCYGTYM8V15f+uZUD8UtzXRFw9YSAfem3L/ftl/9+0uoX3z6w8Mc52LTOFiCUYCK3eXIaTh6eh9P7p+Hc3T032fWuZmtv1MMHG71icRzPoQaVpzlAq7rrC3sXzPQyS/CsihQA+TuDVtPIVdO4FYcp0xhMNHfGO12W2ZrHiLyaAHU6jg/QrH2aX0sMZFvcXW/Tqb+LOiqLww/1M5kp6VLu2k54dPM6lGOdMrsnJ0nn++flEYup3c0g8WCodwwMT8OV/WGi69gfbOwadFqbgc2OezpHlNxzW7XJeltyxL+Hoh3HMROOib5WMdAnt+/9uMrPdspfpZfNUu8zzZgaS9s8UNOmTRC0Ovh+fl8Gpm3qo+vJSTh9otUlVp/72SMSdq4MGCoh1krV0fy4cd4yi1bvbJPjJGlsIQABCEAAAhCAAAReLoHtJQQuzsLC3hPwdnpLwIvHC/dOgdXeIWCoyhdu+yLr7lY3X0DtC3YJuhWEZtD9l+8cCNaAJbWzcUqga32GX2ZNdg12im45KB7rYF+oq2zrc3L/NCY3LGg8LncYl3zxls9MbFFF3jZf9qs8BaeVWWtHJ6UcWnvPoWFUWq2SEFBiRCsUujkaJRUus3U4jyZ3EHyWpMF5OLl/Ut4JUXkoQdL19f7n7I27M/qZzJh0mPWfbowZOQrkzFdS8sI9+hHPheqHvWp27H0z1V/XH5If+4TJnD9EH9evfnTnbbJrue7NvETlk+7+ZYOx2Ng5zhN9hmwrh8Sl/t+O63ypOa9q+7gX7XNz2o0ZZfbv8GiYpHNR1x5r3+wXf57XOyW97BGWvOLoqJUR50wrkZwtcSzHr7MsHZo97rrr23gfm7JbPsdeDvsQgAAEIAABCEAAAtsjsL2EQAjh2dv24sD0t1isnxDov7DG4/zltP0C6gOgLth0X9BTf3cHUl90J196U/BT7qjpzqBLBsQpi1/sszwL8sud0E4HFwB4G9Kd0RpMTPWrdXE8Z4tcJgZBA/2aoCzaZ3rq7rVnkPYV6DXyfLBQZLi+ub6fC+lW7nLngmK7yfKyrd4FKrH5wNb+/QJ9Umf5IwNJiWSfEhN5njM/L6/hEOsvn4s4QvYJ8cyjlme5ywoQ2T/hKt2ST4tTYZcEup8RzPORkx5zelt5sa+MeZk/5GA182lsKjKm/tDqMOAm22VLtx35U7K/k5UTH4VpSfxkgSMf0h3zwdL7NEa1p/DKyacyjvHwNvQsvB5Df8hzK7/S3fuotmPeXFOWJATyGEnf1F9JACUX0rmRbIvtcp/GJndtreXVH70Mq/f+MM+um1wOIQABCEAAAhCAAAReKoGtJgReqqVbH3zJF/aVdOmSCMO7vCsJohEEILBJApPEgp2r0+TElYecyL+yJDpCAAIQgAAEIAABCEBgKYFrJgS01L/e+T88/Hr4el4FoNUAl/2c4FINb23ldRMC/q5he9f31iJBcQjsBQF31z6vlqirBzZgIAmBDUBEBAQgAAEIQAACEIDAKgSumRBYZQjaQAACEIAABCAAAQhAAAIQgAAEILBrBEgI7NqMoA8EIAABCEAAAhCAAAQgAAEIQGALBEgIbAEyQ0AAAhCAAAQgAAEIQAACEIAABHaNAAmBXZsR9IEABCAAAQhAAAIQgAAEIAABCGyBAAmBLUBmCAhAAAIQgAAEIAABCEAAAhCAwK4RICGwazOCPhCAAAQgAAEIQAACEIAABCAAgS0QICGwBcgMAQEIQAACEIAABCAAAQhAAAIQ2DUCJAR2bUbQBwIQgAAEIAABCEAAAhCAAAQgsAUCJAS2AJkhIAABCEAAAhCAAAQgAAEIQAACu0aAhMCuzQj6QAACEIAABCAAAQhAAAIQgAAEtkCAhMAWIDMEBCAAAQhAAAIQgAAEIAABCEBg1wiQENi1GUEfCEAAAhCAAAQgAAEIQAACEIDAFgjcqoTAxcPjcHBwkP+Ow+lnlxM6v6/2aXv88KLplOpPwnkpvQinRwfh4L5KzsPJwUGo/XK99Dg6DZJo+tV2RWAIIckoumfZcewyTgjJvqRLr7f1PXmSZT45qRy68csYrn2U69qZlFh2/zxuG50/Ow3HXVtvSekr+8u2MvS6F517Ic1xx+dAc9uxN92cXcFzOKjjJ9FZpuMbQp076SUOE7tcvzQvzo9KXZUXuRduXXmxJ46S/MvZsX0dGvgcQAACEIAABCAAAQhAAAJ3lMDtSQjEYNAFfRYMlsBsfvYsOFXwF6IMBZvW5zycHJ2G84fHtU0MGo/D8f0c6D85CSf3T3KgnwO9mXEtsGuC66hW6lN0aFS1oFX6+P2mUYh6K9jsOPgx/X4KlsWr16GO1fSxYU2+xurUmBzaHHRtTV6dlzrOpG9TYO2kq6+w+bG5SMmZi4c2F3muurmM43pdnticnYfTIydXPiMbtY1DJl9IyR3Tp/rNhJFX0e2br6X5N96a18xU87wLOjid2YUABCAAAQhAAAIQgAAE7i6B7SYELs7C4vAwHOa/xeMXIYQX4WxhZYtwplvtw/log7QafIUQg9/7p+XO64ELLpuEQL5DXILzGDRe5P5+RcBJOH14ElcgnN8/Cec+iHOyi5oxOHV3kONdcwWEfTBeeqWdHFSflmCyq7e0xX3Jkq3StQ3g28C1C8ajjik49u38fhzZBcltXRfkWuOse522rk3mEoNkN36y0HOZSQhkXU5tDmzu7qfkjckz3WriwSS29opZM/+a7yj3JCYb5laZ+H4th6T99H9vT8chzmFOFuyCDlPlKYEABCAAAQhAAAIQgAAE7iCB7SUEcjIgJQFCePa2kgCrJgRsdlLQ1Syft2ILTHUHNi+H1516H9ilFQL1jrGCxhRMqjzfKf7sNJw8PA0ndnfaAkjbKjEw4yizgWPUzxIGGqMVYDrO1dmYsiX26oLw2DffGW/G79pZX2t7bDY5PZo+1igH4Rbkt3XTIHeaEHCBfbTZEit11cRkLsodfevnEipageG4x7mwxz0yj2RLTUXIN1Kyx93tNz0kzz26cWwrD7rHR+qstMkF41AfxXDJmdjB6V7GmbKKMmJ9bf/ydKiWsgcBCEAAAhCAAAQgAAEI3F0CW0sIvHi8KCsDtELAtg+ergo/JQNSEJeCqhLQNUFfKy8GzCXY9MGcyagBeg1WFUym8WKAmQPTGtS1Y+ioDaBV6rYxSPbvJ7C6NM44IdDqKEneJguUtcS/DVyrbeqXEiJa1p5KJzpvIiFgds4lKXLQbOOWlRpFQdtx86yEgL/7v0pCoPGHAcNoo60QSEmIVg83fqNXPohzOGCbEy4p+WAyvK/VdzYUkbugQ1GGHQhAAAIQgAAEIAABCEDgLhLYekJg9QRANx0uyIw1FlApoG8CwLZfDfTb8nh3uyQK8t1p3cEtd65znxi8nYaLXodO5CS47urToQWoNViMQXx+j0G9k51azgfNTrCzvY6fkwzljrXajwPVklixZrL1SisE8riOn/Gv8q3egum0/N/f35eGti12mC69DdneyK2pq1x9wkR39mvQnxk8zCsHnL1KRvTz4HVrV5O0NXXFxJTzlMNxfCwljvVSdOh05xACEIAABCAAAQhAAAIQuHMEtpYQCE8fpBUCi7Ngbw6wf88e2/6KjwxY0KQEgHX2wbkLipPk+v9cQmBSrqBM2yrCBckWdPoA1zca3AVuq9NRtCMnBPx+vjNeAteRHhN5NQi2qhJI24ExcYmH1HUaqDYcy2MFKVT3QXfc7+X5Oci6NTo09mUNbGWAPbawdLl+fqHfaF5V1smO+sVEhDFp7+B7ncq+HsVwnGMioUkyZKPcpo7jCvNuDfo7znEuqk67oMNUe0ogAAEIQAACEIAABCAAgbtGYHsJASOrpIBeLBiTAysmBHLAqzu+zRJ7BYmD2ZsE/rFNG0inbjmIe1qX4BdxLmhMd4jd8+7ubnhbp1UAKYlQ9dbb6228LrkQA8cetJl0AAAgAElEQVTULwan3QqGdKc99UvyNEa2wD2vbyU1QJUlXaCai5ux5uyJL21sx+uTCVkL93JH2arxuzfuqzgG95VpSYqM5tWVxeBcjKS31Wvfy7cy19fPVRzP6iRL2yxnJT5NosjPkdlVkwGRWUk6VN/Yqg7iwhYCEIAABCAAAQhAAAIQuNMEtpsQuNOoMT4SaILyDTBpkjUbkIcICEAAAhCAAAQgAAEIQAACd4TANRMCz8ID3e0v26+Hr5d9/cTgg/DsjgDFzBkCugPf372fab5OsV8pUN9XsI4E2kIAAhCAAAQgAAEIQAACELh7BK6ZELh7wLAYAhCAAAQgAAEIQAACEIAABCCwDwRICOzDLGIDBCAAAQhAAAIQgAAEIAABCEBgTQIkBNYERnMIQAACEIAABCAAAQhAAAIQgMA+ECAhsA+ziA0QgAAEIAABCEAAAhCAAAQgAIE1CZAQWBMYzSEAAQhAAAIQgAAEIAABCEAAAvtAgITAPswiNkAAAhCAAAQgAAEIQAACEIAABNYkQEJgTWA0hwAEIAABCEAAAhCAAAQgAAEI7AMBEgL7MIvYAAEIQAACEIAABCAAAQhAAAIQWJMACYE1gdEcAhCAAAQgAAEIQAACEIAABCCwDwTu/eQnPwn8wQAfwAfwAXwAH8AH8AF8AB/AB/ABfAAfuFs+wAqBfUjrYAMEIAABCEAAAhCAAAQgAAEIQGBNAiQE1gRGcwhAAAIQgAAEIAABCEAAAhCAwD4QICGwD7OIDRCAAAQgAAEIQAACEIAABCAAgTUJkBBYExjNIQABCEAAAhCAAAQgAAEIQAAC+0CAhMA+zCI2QAACEIAABCAAAQhAAAIQgAAE1iRAQmBNYDSHAAQgAAEIQAACEIAABCAAAQjsAwESAvswi9gAAQhAAAIQgAAEIAABCEAAAhBYkwAJgTWB0RwCEIAABCAAAQhAAAIQgAAEILAPBEgI7MMsYgMEIAABCEAAAhCAAAQgAAEIQGBNApckBD4Mbx4dhaPmbxEePV9zlJfY/Pl7i07/o7B47+oGfPiW8dgsg5uQuSnkT548CV/96lc3JQ45EIAABCAAAQhAAAIQgAAEILAjBFZLCCwehRhCP38UFpYc0PFOGJGTFm99ONRGCYE3P0rVKfg+CjoedlpSeBPB+03IXGICVRCAAAQgAAEIQAACEIAABCAAgXDv1VdfDfp77bXXwhdffOGw5GC7JACeh0cLu0P+ZhiH367rtnY/ejOtAFgxIRBy+6uuEriJ4P0mZG4LP+NAAAIQgAAEIAABCEAAAhCAwO0k0CQEPvnkk86KLiGgFQIu+E7BrB4rqIkC3ZlvHjeI/fqkQn8cgoJ29dXd/FbmIjz6k5wMKI801PFliPpIhvS1Y9VpnKNGv/pYgNpZnz54V51k1ERD/7hFlRdCX7f5xxBk/6rb119/PfzoRz8qzd9///1wenoay7797W835fYIgf2p3Lbq+9Of/rR5xMDk2F//TzJsa33sn8nw5fa4gv2zetNP//yx9bHx7U9tpINkSb61UdlIJ8lnCwEIQAACEIAABCAAAQhA4C4QKAmBd999d2BvH7j6oFbBcQ7CfbLA7wcXeDcBt4L3LiGQ7+CnAN7Vza0EmCvP1vQBuwXuSg54g32grz4puHc6BNmcOXSrDdp+TnrHw49VkwMtW9d7K7sWfFsCQP8suLZAWgG3lfdtLKi2MvtTgG1bn1ywIFwBuWTbONbH/1MQ79ta8G7jW5mCfevjj5VEsK3qrJ+XY+X9mCO9ogD+gwAEIAABCEAAAhCAAAQgcEcIxITAN7/5zRlz/QoBJQcUuOpYqwPydvEoPM0v8iuBdxMQtwF2CO2x7uDrjnvaLsKjp/n9BXE1gJIJbjWBW7XgjVGQXnTxlT5ZkVcZpHbO7kb3NiHQBvYmLOtYdOkYxUcvnOysy0ROp+O2Di2Qtn8+CeD3LajWHXZtrcwH6BZoWx+V23H/z5IB1l9BvNVbmfXx/yy5YH9evtX7Y6/fnBwrt4SCdNa2T0r4sdmHAAQgAAEIQAACEIAABCCw7wRiQuDTTz+dsbMLXpu78V2dkzAJwptAuU0AjBMCSjo4oXFXfVPyIQbvjU59+7o6YZoQULCexup1LkH6e/ZYQtWnlD9vkwNJvZoQkLz0GIJn5feTvl7m1ILtlVhArsBcwboPuFU/0kiJACUALAA3WVo5MNfHgnML8DWub2d9rdwnAKzeH3v9rG4kx8pNH+vHPwhAAAIQgAAEIAABCEAAAhBIBO59/vnnS1j0wasCcguQte+W4D9/FB7Z2/y7IL0NjvtAWoF5uuvft40Jg/faVxiqTVzS3yQbpqao7SQh0PVLQbmzRTZ0v6rQBO+5jd4b4Mdq2mmsuEJA3JRkkP06ntqwrRIF1355vspMBwu2fZ3Xy4J3SwZYG/tnyQMlCXy7fl9JBgvWlRxQG3/s920s6eH1s34jOVZu49gf/yAAAQhAAAIQgAAEIAABCEAgEVjvZwf9EvsmuK2PDSjwVoAdl/wvFunnCrWUXgFyXKa/CIvulwsUWJfHBqyfD9Ctn2SV5/pNB/coQZ5hyZJefuK9jovFIv5aQW2nQP0oKOC3vk2g73nkRw5KW2+j7NevNfi6I9n/8hMCZp8F2v6ufh9wW1Btwbn+rN7+2dYH7cuSB16GVhR4Gb1sqzOdVG795xICIzlaGWB9JMO2/IMABCAAAQhAAAIQgAAEIHCXCVySENgQGgXALojfkOQbFZOSCbsRqN+ooQiHAAQgAAEIQAACEIAABCAAgTtHgITA7JTnFQK3LIkxaw4VEIAABCAAAQhAAAIQgAAEIAABR4CEgIOh3fIogZb4q4ItBCAAAQhAAAIQgAAEIAABCEBgTwhsJyGwJ7AwAwIQgAAEIAABCEAAAhCAAAQgsC8ESAjsy0xiBwQgAAEIQAACEIAABCAAAQhAYA0CJATWgEVTCEAAAhCAAAQgAAEIQAACEIDAvhAgIbAvM4kdEIAABCAAAQhAAAIQgAAEIACBNQiQEFgDFk0hAAEIQAACEIAABCAAAQhAAAL7QoCEwL7MJHZAAAIQgAAEIAABCEAAAhCAAATWIEBCYA1YNIUABCAAAQhAAAIQgAAEIAABCOwLARIC+zKT2AEBCEAAAhCAAAQgAAEIQAACEFiDAAmBNWDRFAIQgAAEIAABCEAAAhCAAAQgsC8ESAjsy0xiBwQgAAEIQAACEIAABCAAAQhAYA0CO5AQuAinR6+Eo4cXa6hNUwhAAAIQgAAEIAABCEAAAhCAAASuQ2DjCYGLh0fhlVdeCa/c/yjp9dlpODo6DfPh/joJgY/C6ya7+9upZILZ+8pROP1saldh4/mU2fO2vR4yvRD7GL8it3S4wk7Syfi9/uQK3ekCAQhAAAIQgAAEIAABCEAAAntDYDYh8MUXX4TXXnstvPrqq5O/3/u935sBYEFtDWZjo0sTAjOilhanwHYng9oYuBuDPiHwUXi9JEZS8F/1t2NLIkyNjgkBS65sJCGQ5T95PbxSdJmOSQkEIAABCEAAAhCAAAQgAAEI7D+B2YSAmf7JJ59MkgGLxSJ8/vnnM2R80Jub5ITA6X3d2XcJAwtM893+9i6/v1ue+rX1g4RACcSlmmtjdfdP46MJaTynQwjho6Lb9NGFdFe/ba8Rhlunh8mtQX/b2tfZGK19tW1JCIRBsqU2W28vz8n8qo31xNEaAhCAAAQgAAEIQAACEIAABG4fgaUJATPn3XffbZIC3/ve9+atHAWaMUCugXENcKuYZQFxsEB4cjfbBftVTAzsSwDudVmiQzv2VG7Ut1/14Ma82m67IiAmBx7aowY5aaLHLa4mfIVeG0wurDAaTSAAAQhAAAIQgAAEIAABCEBg9whcmhDwjw7MPyqQ77JPAveQlrr7ch+oZx5tUO4hWYA+ujs/DdxjL1txkINpkzlMDljDokOSo1UK2pZ+XpWN7acx64qArENhNGPbxsaXoLQKo+qhcrYQgAAEIAABCEAAAhCAAAQgcBcIXJoQMAj26MDyRwUyqhJoO3R9mQva1WouIdAE9Woct3NBs5VbAuEinN53LzIc6RADcGs/fna/GW5jB0lvJS0k1j8+YGVzPNT++ltWCFyfIRIgAAEIQAACEIAABCAAAQjcbgIrJQTMxE8//XQFSwfL+7tg3ILf/q70MAC2frNL5+cSAimYfv3haXjd/4zhEh1s7D5A94bG+g09MmC2j8ZqdZi3zeuV9tNd/kam2Rr1TXW22mHCvOMxlUsJBCAAAQhAAAIQgAAEIAABCOw7gZUTAquBmEkI6Nn47uf2UrCtlw2mbVqun++k+35lSb1psiRojgFxd9c/lrlxmkRDP1b7iMLGEgLuBYp6NMG/6T8mC7K9fcJknn3W3bMhITCPixoIQAACEIAABCAAAQhAAAIQKAQ2nxDY0N30ouG6O4NHEuo7A9YVtvvt51YdLNXcGPkkwtLGVEIAAhCAAAQgAAEIQAACEIDAPhLYcEIgLdmPd8Cbu/BbQKc78KNAdx+XyGvVw1qc62qIm31x4hbmmyEgAAEIQAACEIAABCAAAQhA4FoENp4QuJY2dIYABCAAAQhAAAIQgAAEIAABCEBgKwRICGwFM4NAAAIQgAAEIAABCEAAAhCAAAR2iwAJgd2aD7SBAAQgAAEIQAACEIAABCAAAQhshQAJga1gZhAIQAACEIAABCAAAQhAAAIQgMBuESAhsFvzgTYQgAAEIAABCEAAAhCAAAQgAIGtECAhsBXMDAIBCEAAAhCAAAQgAAEIQAACENgtAiQEdms+0AYCEIAABCAAAQhAAAIQgAAEILAVAiQEtoKZQSAAAQhAAAIQgAAEIAABCEAAArtFgITAbs0H2kAAAhCAAAQgAAEIQAACEIAABLZCgITAVjAzCAQgAAEIQAACEIAABCAAAQhAYLcI7FBC4CK8f/zb4dvvXOwWIbSBAAQgAAEIQAACEIAABCAAAQjsIYEtJgT+Kvzxz78Tns5CXC8h8PQbvx1+8+e7v+MPwt/Nyt92xZPwwy9/KfzwoxB+/MaXwvffeFIV+OiN8P0vfyn9/eo7oU2BpH6p/o3wY/V6/k748y8fhb9+/iL89a9+Kfz5uy9UwxYCEIAABCAAAQhAAAIQgAAEILA2gR1KCKyte+zwd+/8QfjNb/zV1TrfaC8L7C2A7xMCFtAr0O+D+9pnolpMCFi/vs+kJQUQgAAEIAABCEAAAhCAAAQgAIFLCWw9IfC+BfDxzv4fhPf/Nuv35J1yt79/ZGCyEqBbBTBNCNhKBCc7hGAykty/Cn98/EF4v6wumLbTqoNej/DZaTh65ZXwurvRv5xuDe4v3j2avaPv6/z+RHZJCKQEg6084B8EIAABCEAAAhCAAAQgAAEIQOCqBLacEFBgHkKwJMAguJ8E4s6yp99oA3irmiYEUlmV4x9VsP2xDian9kmPL/yxD/7XTgg4xWd3091+Bff2aMEP37VHA/LjBP4xg1kZVEAAAhCAAAQgAAEIQAACEIAABNYnsOWEgH+HgA/Uk+JtUN4aY3VNgJ6rRwmB8LcfhG8r2fDkHRfo92PqOCUAtDpA29F4rVbXO2rfLZCSA98v7xRokwXXG4neEIAABCAAAQhAAAIQgAAEIACBlsDLSwj4oD3rNJsQsLYz7wkYJgTiYwJpNcHTbyxJQpjc+KJDSwhMVx+0qDZ7FJMBJfhPsuMKAfcowNJHCDarDtIgAAEIQAACEIAABCAAAQhA4I4ReGkJgVEgP04IWLDug/p2hkZyYou4MuCD8MdNIkErApIM39fvtyPkow0+MmCBfl0JUEeL5eUxAVYIVDLsQQACEIAABCAAAQhAAAIQgMCmCWw5IeB+JlBL+vUegO4nBLVcPwbqTV17J38+kLfg/7e7xwxSmR4JaN9h0D820CUhNpUQiC8HzO8I0LsCvqxfHci/SJDL+WnBTbs78iAAAQhAAAIQgAAEIAABCEBABLaYENCQW9oOHkkIoV0hsCVNGAYCEIAABCAAAQhAAAIQgAAEILBzBPYvIRDfC2ArEbo7/BE9CYGd80AUggAEIAABCEAAAhCAAAQgAIGXQmD/EgIvBSODQgACEIAABCAAAQhAAAIQgAAEbhcBEgK3a77QFgIQgAAEIAABCEAAAhCAAAQgsBECJAQ2ghEhEIAABCAAAQhAAAIQgAAEIACB20WAhMDtmi+0hQAEIAABCEAAAhCAAAQgAAEIbIQACYGNYEQIBCAAAQhAAAIQgAAEIAABCEDgdhEgIXC75gttIQABCEAAAhCAAAQgAAEIQAACGyFAQmAjGBECAQhAAAIQgAAEIAABCEAAAhC4XQRICNyu+UJbCEAAAhCAAAQgAAEIQAACEIDARgiQENgIRoRAAAIQgAAEIAABCEAAAhCAAARuFwESArdrvtAWAhCAAAQgAAEIQAACEIAABCCwEQIkBDaCESG3msBHb4Tvf/mN8ONbbcS+K/8i/PWvfin8+bsv9t1Q7IMABCAAAQhAAAIQgMDWCOxMQuDv3vmD8O13LtYz/G8/CN8+/iD83Xq91m/9/J3w518+Cn/9fL2g5OLdo7UDmLX7RN2+FL7/Zf2tGtg+CT8cBMFrj280TYdffScMZy8G20m3mw7mfvyGGHwp/PCjOs1mk/j48tJizYSAjTOUUwRetjNmf1kvX9/oUPzTt9id/fV8ythoHu2ckx3rnXvqdfm2nQvvK72/rmfH5SNfpcVYB89s+bk27n+JJnZ+vPHkkkbLq+fOzeW9Nlw7c53yusXrxMy17ErsrmSC88kZnadi7fzQ+ZLOFV3zvj+0J/tMU+f9SLJCMLuLLJ2bK/vDCjJXkHU9Haa0QvB62TlT7R21Vpn3let9Bkjiy91Ouc59fzBec3WtDUVmN6+x3Pxtxz+vWms4ggAEIHA3CJAQWGWe4weYfRiuF5TYB2AfVFw23Np9ui+M8QtL90E8HnP8Ab/2+Ca802E03v/f3tnr2HEjUXjfwcAGm/nRtIHeZAEBDi4cbbihg8VgciebChCEgQErlpI1sHqJXhSLh3WqyO47MxpdtaETyN3NJuvnY5FdZPcdP0vuStBe2eijbdt2FjDG5iWSuC+Xs2a/59qqPGzghcCq5rcve0rfP6Xuy3jGfWHnfWGwiOnb2zZ7eGiDxX1a4D2x/VzdS3bG0171qfwRY3Nq8zUKFn0aaqjvozCdHbJPNb/0gmLy0GbWsz8P2FxRn0Ot7HKhjVx/to358UDvUzis677bHkacmq9Pn5fXcpnHtXNifK0q7p8ljmHPix1L3y/lPo4XYs36p24ijrLG8XEbMEtTVCgCIiACIvDiBG67IfDubnvzw8/937+2X/+7bZu95R9l5Z65m9r8vP3SXlR93n79O+rGkb8w+O2ndbmJ/PzvV9uPP/5jo5fIx2ApEYiFmDdpDzm8NcEOequPt5w4xgPQZMQbl77rfqXN1jcj0G43ceNFQZGJpDDr77b0TQRPtO7iLe1jNhdMz+u77cPwa36T4HLL597JPm7jCQp8zYmFJ5C4B5/8jY/LWOratq32XWbK+v2t2MO9fRmS+Vivsxzv/+jbthmBNiPptVbFpx4rzVZLzK3N5a59Fs8/X+C+Cl/DhqWvFgPVhsaafXxMEugcQq+1CV8/Xl5tH+5DV9TrmzKw4W+8IMkcRhz3Echse5Fv8HRZSYe95UtxF7a1tisO7Ua2IXiTf7wITnGKsUu60n1ibOWjT60d3WPb0oJox6ekY2GD+WUyU8x1gkVXZtjr1EPVR/PAKibbOKA6PB75fIrXYluKh3KP3+KubGh6lvFQ+9v5ZQ42r1CfgkexIbdBpTiu4tfLKLZGdS6rNvZYsX5IPlEM9blojPWV/X3embhanHTZ/mVXXfCxbcNgeyDnN8UlTiqfFQ+WZue5TuaQ7B4Niw1WnvqJGWV5Yd9CBuQnWbxZEW2mOD6yIcmDbS7roT0zYx6Ffftza/aHx7vZtHpmTWOz9RnsMMNd5sy66OL5C6x2jpNOy7vGJkFw3GmuYhEQAREQgRsTuOGGgC3i+ybAwsnH/WTg9+2XH+6239B+5ycDWZZvHvhGgjd88oYA9E3H4webPQDxgJ+aosCSBUqk99rkpMn09uQ1JXWeXK112sOdE9617e2hDdkt+UObmhxYUk020KImHvxwsi4srbzoNw5YzBQmIWUlJ+667bz4jHt2lhnyvWILkpeRABFvltMSPUqsSl8wB9Md/RL63ObL9rEn1g/vo5/sXrRx/kjami+2YUGx0zy6YgPap686uu5YWPx19MVsA+LBeY4+azI6Cz7vLOFH7oPg6hyw0O3H4lu2xby19sG1yUCbKxxgzzIO2+bM/In8rB82UAxwHHeuYJ5jYC/+DnwqLFlCO2fduLnbFwfjOY37/MVNZsAxGTE9bEFfjPEUfQXz8pFl2HmONfTZsQ2hI8WDKSoxMesOfe3eLrse+7ThZWPH+tl0tv4eumI8t0We/QRmzG/hb46NKG8278yt2b/Q436ZjNU4Iq7DRmtB5XbZ5rbC41r8tYWlt2m2QT+OFA9u46x3b36I+otnQOknrpu58h3iY/YtbYN9Mb7hF2JxSNyzoZaPMer6TY7Z2ObRERdlbq19M5RmFm4bbOX+tHOU5zYuisdxCM/sSEaLjetz9T7T0KEzERABERCBcxC44YbAtuGtPS/OgSEv4lG6+oLg2obA+uuBlU7S8sxTf5COhXGRYg/oKXGg5HgswCgZWbfx5GHUbwlWT9ZawkEPZ5KFBVO04wSPHvBkd9Zfk0yqyKdmAxbzVl6vV4nkKqmADPiEa9aFdslPT3IsqWpfKdi9hQ052WShM4sjDi2Ba30QSZZJszbBmpPxKj+uh55hL5gjtqhvaWEwbFhxQAKOI+pQwml6sVBlEvV82NduwDavlXkufOrCQobVyf7UsZNlZmtCDspDZysp/j21L3wRdNk+WD+22MvyZ/1YOBWfELejT93e1B4xPngglrLOWDwuZAADjuY/dPeypHM1DtGWj8SxFY/r6zGJmOJ+NBt2x+Yhh5ivTJ7PpUc2HLNbzQnhtrUNfVb+HHZo8/nePse3PjV7vW/BxDYG7MuRz7bQW8RZ2qQqMRQ+5LHob3mz/fDN9GJxFhwX87T1M+KxfdlS5c2Mjp8xR5uwZp33ZTwjTX4ZS6VPpo2LRT/B78QxChdnxY6dmDyKY/T7JHyMHdxBjOJIjKguYgWt+Lr1J3ECv2xDjo9ob+WYayDd/cfY9dKwb32NtutjY4XnzrqKSkVABERABE5E4KYbAvB7tTGw3hDwxX38FOAxXwgcf4kAG1726A/UurjJD+iusSUblGhREmA1lm3aG4L6ECd5ZREA31riMB7KOUHYS5ayfm4DHzlh637UpLX4tPRrUQd2jyMSs5V/1t6SouYf20lJ5fDdJUZSNDT0k5r81H5g+T2Baz8noH7c7TtTUeXH9eA9GEIXjtVWv4YvdkRCaHeGvGUzk9kXKW1B0iuBMyWZWFhmedkm2OBSFj518SEj6izN468vFhVCDm4WeRRTc92dNtQ34Y/52eOcYm8pk3RCwziOPvWSaO/yo9/YDz7nt8lVxtASJ2YL2Ws3QmdtTz6Ofu/xXH0a17n/Q3E/M3/bmMNC18q5jfnWuY5xy/HLvhf7hl8sr1rA7Wd2sZiu7eza2h6PZ2ZpsTIWz92ntqDqrD5eLtvH95ft4X2w8Pbvtg+Xu+3j/WX78J540RvcNF+UGIoNosqhXpOPIy6IP/qhHbPf3rKw7LGEjQVIbxzGPDvbEGMKLXC0upi/UTbrxB0cjWG1gfsF9fx4XR7qhwy3ax6b7Btx7L5He0jsxzF2UA6bcHzMhoDbNOKLYoX18nked33zx2z94257mP5PLSQfZtK86EVhr2+clvgfMeC1zZbaT0O0TkRABERABE5H4JtsCBiFugFg129++r0Ayp/7tzr1JwN83VuvZYXol/vJQMi0s5r8LB+KbfGFxb0/iPnBuWzTZUeSQnprwki3zJ7RxhKTlPDaA35OBA+TCpKdTosNSW+vmOVa4Vp/ktsuKBGpN4fektA0xrNvtX9C3Kwj22vyQ96QU/W0a/RtSMebMLyBsfb4PfnQk3xxXXaPY4MlDhsaR/qd664N3tpk2u9M56SQpcc529DOKWbCBqtPDMcCpCei9Fm/tRkxGWrGWZY5ituJ6c9tSafV4OR7l0OOFdOHvsi2mWziurMgOozj0afuR9ifbXCuiJsDn3Zt6JyYey9qTLCYbkyO+bdmiZ1zQBw2W0vyD1Ue574Qjn7KvrZF+YihfC9xKOxCh29ywB4uTzFoNzge7Dr5lVsu+5F5PoXd68v2cI+vlF7F11PNHvsC5X/NtrevMb4zB47JuonBMcrnzi7mKPaO63F5lc335jYWB7P8VM/8K3XsPua9Kn/Vh0keN2jnaxt8gYrxw42ca8Qi3+Nzj3G3M/dFxGQuz3HcY40W6kN6ibkmr41H0+k2D0YUr6PMBLEMjsk+98M/k43zaUOgf6lif/Ml/s8tsLL41opzmdmDeRKtjo7Nz9154qil7omACIiACHwLAjfcELC3+/GH/t5MC3m+T39rgP6o4D/v/pP/hsAWP0OwP1YYXxLUnw3QzwwsqX7qHxXc65meJI43RUi8R31PNPx+JFP+cLUHbP9jQunBuW7jCau16f+gy2zA+dDbT9i+xSegnux0ed2G46SiKljoMfvIn6Sj2z4SxJZAhk9IZmoblJu2YOfthiz2FVx7clrbRNLKrDPXIw4mb+jtPuC62o5yT1phcySDQ8/oR0vEECuelI0+p4Qz2dB9h65dGwxgqwv5O/2ZiolRiaFkA28I9E+Bm92v7W0oJ6okz+KhxG6W6YZUf0yu+xocW01KqO26tgOfvb6oYwx/oGu06wm49wcx3InjuuAafW3GUZu3tkEz+vbYp2wjbGAwF/4AAALwSURBVChMaQMGm1HrvnC+q/9aP7ifvsCPMb0fk8EcdnXJB2Nzn0PVw7FS72ExeI1dnj8wr4SveQ54HjvvC5fd7cR8mMYp18vx0L4qQDwkdnlu9bHsNr+9f0fzRo4H+Dn1s8mm8cfjpbZp9+AHC2L7yvxg1VbjmfvcY4z7NtvO88OuDdNYRzyYBVne8IvtHvNJd2xvbKY2+EOAEevMjxfP63Kz63hDYLBJmywc+/7zJvhkenA+bwj0+ZD627zNtlksETvikGKyY1odZnmYq1e1VSYCIiACInAWAjfcEDiLy7JDBL5jApbkrRL77xiJXD8hgSlObQEVi68TWiyTRODFCCw3Ur5Q+teQ+YUmqbkIiIAIiMBJCGhD4CQdITNE4KsSwNue8oboq+qUcBF4NoH8ZtfelsaXGs8WqoYi8Kcg8JKLd5Nl4ye+HvhTIJCRIiACIiACNySgDYEbwpYqERABERABERABERABERABERABETgLAW0InKUnZIcIiIAIiIAIiIAIiIAIiIAIiIAI3JCANgRuCFuqREAEREAEREAEREAEREAEREAEROAsBLQhcJaekB0iIAIiIAIiIAIiIAIiIAIiIAIicEMC2hC4IWypEgEREAEREAEREAEREAEREAEREIGzENCGwFl6QnaIgAiIgAiIgAiIgAiIgAiIgAiIwA0JaEPghrClSgREQAREQAREQAREQAREQAREQATOQkAbAmfpCdkhAiIgAiIgAiIgAiIgAiIgAiIgAjckoA2BG8KWKhEQAREQAREQAREQAREQAREQARE4C4G/fPr0adM/MVAMKAYUA4oBxYBiQDGgGFAMKAYUA4oBxcD3FQP6QuAsWzOyQwREQAREQAREQAREQAREQAREQARuSEAbAjeELVUiIAIiIAIiIAIiIAIiIAIiIAIicBYC2hA4S0/IDhEQAREQAREQAREQAREQAREQARG4IQFtCNwQtlSJgAiIgAiIgAiIgAiIgAiIgAiIwFkI/B8WH38816wjPwAAAABJRU5ErkJggg==;" parent="1" vertex="1">
          <mxGeometry x="430" y="140" width="1200.76" height="422.84" as="geometry" />
        </mxCell>
        <mxCell id="ltOdXQeGYq272rGDrDJT-14" value="" style="edgeStyle=orthogonalEdgeStyle;rounded=0;orthogonalLoop=1;jettySize=auto;html=1;" parent="1" source="ltOdXQeGYq272rGDrDJT-11" target="ltOdXQeGYq272rGDrDJT-13" edge="1">
          <mxGeometry relative="1" as="geometry" />
        </mxCell>
        <mxCell id="ltOdXQeGYq272rGDrDJT-16" value="" style="edgeStyle=orthogonalEdgeStyle;rounded=0;orthogonalLoop=1;jettySize=auto;html=1;" parent="1" source="ltOdXQeGYq272rGDrDJT-11" target="ltOdXQeGYq272rGDrDJT-15" edge="1">
          <mxGeometry relative="1" as="geometry" />
        </mxCell>
        <mxCell id="ltOdXQeGYq272rGDrDJT-11" value="复制短链" style="rhombus;whiteSpace=wrap;html=1;rounded=1;" parent="1" vertex="1">
          <mxGeometry x="180" y="610" width="80" height="80" as="geometry" />
        </mxCell>
        <mxCell id="ltOdXQeGYq272rGDrDJT-18" value="" style="edgeStyle=orthogonalEdgeStyle;rounded=0;orthogonalLoop=1;jettySize=auto;html=1;" parent="1" source="ltOdXQeGYq272rGDrDJT-13" target="ltOdXQeGYq272rGDrDJT-17" edge="1">
          <mxGeometry relative="1" as="geometry" />
        </mxCell>
        <mxCell id="ltOdXQeGYq272rGDrDJT-13" value="企业微信打开" style="whiteSpace=wrap;html=1;rounded=1;" parent="1" vertex="1">
          <mxGeometry y="620" width="120" height="60" as="geometry" />
        </mxCell>
        <mxCell id="ltOdXQeGYq272rGDrDJT-25" value="" style="edgeStyle=orthogonalEdgeStyle;rounded=0;orthogonalLoop=1;jettySize=auto;html=1;" parent="1" source="ltOdXQeGYq272rGDrDJT-15" target="ltOdXQeGYq272rGDrDJT-24" edge="1">
          <mxGeometry relative="1" as="geometry" />
        </mxCell>
        <mxCell id="ltOdXQeGYq272rGDrDJT-15" value="微信打开" style="whiteSpace=wrap;html=1;rounded=1;" parent="1" vertex="1">
          <mxGeometry x="320" y="620" width="120" height="60" as="geometry" />
        </mxCell>
        <mxCell id="ltOdXQeGYq272rGDrDJT-43" style="edgeStyle=orthogonalEdgeStyle;rounded=0;orthogonalLoop=1;jettySize=auto;html=1;entryX=0.5;entryY=0;entryDx=0;entryDy=0;" parent="1" source="ltOdXQeGYq272rGDrDJT-17" target="ltOdXQeGYq272rGDrDJT-35" edge="1">
          <mxGeometry relative="1" as="geometry" />
        </mxCell>
        <mxCell id="ltOdXQeGYq272rGDrDJT-17" value="服务端判断UA来跳转指定页面" style="whiteSpace=wrap;html=1;rounded=1;" parent="1" vertex="1">
          <mxGeometry y="760" width="120" height="60" as="geometry" />
        </mxCell>
        <mxCell id="ltOdXQeGYq272rGDrDJT-22" value="生成短链接口" style="text;html=1;align=center;verticalAlign=middle;resizable=0;points=[];autosize=1;strokeColor=none;" parent="1" vertex="1">
          <mxGeometry x="295" y="490" width="90" height="20" as="geometry" />
        </mxCell>
        <mxCell id="ltOdXQeGYq272rGDrDJT-45" value="" style="edgeStyle=orthogonalEdgeStyle;rounded=0;orthogonalLoop=1;jettySize=auto;html=1;" parent="1" source="ltOdXQeGYq272rGDrDJT-24" target="ltOdXQeGYq272rGDrDJT-44" edge="1">
          <mxGeometry relative="1" as="geometry" />
        </mxCell>
        <mxCell id="ltOdXQeGYq272rGDrDJT-24" value="跳转长链地址" style="whiteSpace=wrap;html=1;rounded=1;" parent="1" vertex="1">
          <mxGeometry x="320" y="760" width="120" height="60" as="geometry" />
        </mxCell>
        <mxCell id="ltOdXQeGYq272rGDrDJT-35" value="企业微信内嵌特定页面查看" style="whiteSpace=wrap;html=1;rounded=1;" parent="1" vertex="1">
          <mxGeometry y="930" width="120" height="60" as="geometry" />
        </mxCell>
        <mxCell id="ltOdXQeGYq272rGDrDJT-44" value="微信外部查看" style="whiteSpace=wrap;html=1;rounded=1;" parent="1" vertex="1">
          <mxGeometry x="320" y="930" width="120" height="60" as="geometry" />
        </mxCell>
        <mxCell id="ltOdXQeGYq272rGDrDJT-47" value="结束" style="rounded=1;whiteSpace=wrap;html=1;" parent="1" vertex="1">
          <mxGeometry x="160" y="1060" width="120" height="60" as="geometry" />
        </mxCell>
        <mxCell id="ltOdXQeGYq272rGDrDJT-53" style="edgeStyle=orthogonalEdgeStyle;rounded=0;orthogonalLoop=1;jettySize=auto;html=1;entryX=0.5;entryY=0;entryDx=0;entryDy=0;" parent="1" source="ltOdXQeGYq272rGDrDJT-51" target="ltOdXQeGYq272rGDrDJT-47" edge="1">
          <mxGeometry relative="1" as="geometry" />
        </mxCell>
        <mxCell id="ltOdXQeGYq272rGDrDJT-51" value="" style="shape=curlyBracket;whiteSpace=wrap;html=1;rounded=1;rotation=-90;size=0;" parent="1" vertex="1">
          <mxGeometry x="210" y="840" width="20" height="320" as="geometry" />
        </mxCell>
      </root>
    </mxGraphModel>
  </diagram>
  <diagram id="ELu9flp9Bi-mLsQBKJ7C" name="人脸识别流程">
    <mxGraphModel dx="1422" dy="762" grid="1" gridSize="10" guides="1" tooltips="1" connect="1" arrows="1" fold="1" page="1" pageScale="1" pageWidth="827" pageHeight="1169" math="0" shadow="0">
      <root>
        <mxCell id="zz8dxL51FPiBjs9owljc-0" />
        <mxCell id="zz8dxL51FPiBjs9owljc-1" parent="zz8dxL51FPiBjs9owljc-0" />
        <mxCell id="zz8dxL51FPiBjs9owljc-4" value="" style="edgeStyle=orthogonalEdgeStyle;rounded=0;orthogonalLoop=1;jettySize=auto;html=1;" edge="1" parent="zz8dxL51FPiBjs9owljc-1" source="zz8dxL51FPiBjs9owljc-2" target="zz8dxL51FPiBjs9owljc-3">
          <mxGeometry relative="1" as="geometry" />
        </mxCell>
        <mxCell id="zz8dxL51FPiBjs9owljc-2" value="开始考试" style="whiteSpace=wrap;html=1;" vertex="1" parent="zz8dxL51FPiBjs9owljc-1">
          <mxGeometry x="310" y="120" width="120" height="60" as="geometry" />
        </mxCell>
        <mxCell id="zz8dxL51FPiBjs9owljc-6" value="" style="edgeStyle=orthogonalEdgeStyle;rounded=0;orthogonalLoop=1;jettySize=auto;html=1;" edge="1" parent="zz8dxL51FPiBjs9owljc-1" source="zz8dxL51FPiBjs9owljc-3" target="zz8dxL51FPiBjs9owljc-5">
          <mxGeometry relative="1" as="geometry" />
        </mxCell>
        <mxCell id="zz8dxL51FPiBjs9owljc-8" value="" style="edgeStyle=orthogonalEdgeStyle;rounded=0;orthogonalLoop=1;jettySize=auto;html=1;" edge="1" parent="zz8dxL51FPiBjs9owljc-1" source="zz8dxL51FPiBjs9owljc-3" target="zz8dxL51FPiBjs9owljc-7">
          <mxGeometry relative="1" as="geometry" />
        </mxCell>
        <mxCell id="zz8dxL51FPiBjs9owljc-3" value="是否启用人脸&lt;br&gt;" style="rhombus;whiteSpace=wrap;html=1;" vertex="1" parent="zz8dxL51FPiBjs9owljc-1">
          <mxGeometry x="305" y="250" width="130" height="80" as="geometry" />
        </mxCell>
        <mxCell id="zz8dxL51FPiBjs9owljc-5" value="正常进入考试页面" style="whiteSpace=wrap;html=1;" vertex="1" parent="zz8dxL51FPiBjs9owljc-1">
          <mxGeometry x="540" y="260" width="120" height="60" as="geometry" />
        </mxCell>
        <mxCell id="zz8dxL51FPiBjs9owljc-14" value="" style="edgeStyle=orthogonalEdgeStyle;rounded=0;orthogonalLoop=1;jettySize=auto;html=1;" edge="1" parent="zz8dxL51FPiBjs9owljc-1" source="zz8dxL51FPiBjs9owljc-7" target="zz8dxL51FPiBjs9owljc-13">
          <mxGeometry relative="1" as="geometry" />
        </mxCell>
        <mxCell id="zz8dxL51FPiBjs9owljc-7" value="打开弹窗人脸识别" style="whiteSpace=wrap;html=1;" vertex="1" parent="zz8dxL51FPiBjs9owljc-1">
          <mxGeometry x="310" y="420" width="120" height="60" as="geometry" />
        </mxCell>
        <mxCell id="zz8dxL51FPiBjs9owljc-9" value="不启用" style="text;html=1;align=center;verticalAlign=middle;resizable=0;points=[];autosize=1;strokeColor=none;" vertex="1" parent="zz8dxL51FPiBjs9owljc-1">
          <mxGeometry x="455" y="270" width="50" height="20" as="geometry" />
        </mxCell>
        <mxCell id="zz8dxL51FPiBjs9owljc-10" value="启用人脸" style="text;html=1;align=center;verticalAlign=middle;resizable=0;points=[];autosize=1;strokeColor=none;" vertex="1" parent="zz8dxL51FPiBjs9owljc-1">
          <mxGeometry x="375" y="360" width="60" height="20" as="geometry" />
        </mxCell>
        <mxCell id="zz8dxL51FPiBjs9owljc-16" value="" style="edgeStyle=orthogonalEdgeStyle;rounded=0;orthogonalLoop=1;jettySize=auto;html=1;" edge="1" parent="zz8dxL51FPiBjs9owljc-1" source="zz8dxL51FPiBjs9owljc-13" target="zz8dxL51FPiBjs9owljc-15">
          <mxGeometry relative="1" as="geometry" />
        </mxCell>
        <mxCell id="zz8dxL51FPiBjs9owljc-19" value="" style="edgeStyle=orthogonalEdgeStyle;rounded=0;orthogonalLoop=1;jettySize=auto;html=1;" edge="1" parent="zz8dxL51FPiBjs9owljc-1" source="zz8dxL51FPiBjs9owljc-13" target="zz8dxL51FPiBjs9owljc-18">
          <mxGeometry relative="1" as="geometry" />
        </mxCell>
        <mxCell id="zz8dxL51FPiBjs9owljc-13" value="相机是否授权&lt;br&gt;" style="rhombus;whiteSpace=wrap;html=1;" vertex="1" parent="zz8dxL51FPiBjs9owljc-1">
          <mxGeometry x="330" y="550" width="80" height="80" as="geometry" />
        </mxCell>
        <mxCell id="zz8dxL51FPiBjs9owljc-15" value="&lt;span style=&quot;color: rgb(51 , 51 , 51) ; font-family: &amp;#34;arial normal&amp;#34; , &amp;#34;arial&amp;#34; ; font-size: 16px ; text-align: left&quot;&gt;底部弹出相机授权确认&lt;/span&gt;" style="whiteSpace=wrap;html=1;" vertex="1" parent="zz8dxL51FPiBjs9owljc-1">
          <mxGeometry x="540" y="560" width="120" height="60" as="geometry" />
        </mxCell>
        <mxCell id="zz8dxL51FPiBjs9owljc-17" value="没有" style="text;html=1;align=center;verticalAlign=middle;resizable=0;points=[];autosize=1;strokeColor=none;" vertex="1" parent="zz8dxL51FPiBjs9owljc-1">
          <mxGeometry x="460" y="570" width="40" height="20" as="geometry" />
        </mxCell>
        <mxCell id="zz8dxL51FPiBjs9owljc-21" value="" style="edgeStyle=orthogonalEdgeStyle;rounded=0;orthogonalLoop=1;jettySize=auto;html=1;" edge="1" parent="zz8dxL51FPiBjs9owljc-1" source="zz8dxL51FPiBjs9owljc-18" target="zz8dxL51FPiBjs9owljc-20">
          <mxGeometry relative="1" as="geometry" />
        </mxCell>
        <mxCell id="zz8dxL51FPiBjs9owljc-18" value="开始检测" style="whiteSpace=wrap;html=1;" vertex="1" parent="zz8dxL51FPiBjs9owljc-1">
          <mxGeometry x="310" y="720" width="120" height="60" as="geometry" />
        </mxCell>
        <mxCell id="zz8dxL51FPiBjs9owljc-27" value="" style="edgeStyle=orthogonalEdgeStyle;rounded=0;orthogonalLoop=1;jettySize=auto;html=1;" edge="1" parent="zz8dxL51FPiBjs9owljc-1" source="zz8dxL51FPiBjs9owljc-20" target="zz8dxL51FPiBjs9owljc-26">
          <mxGeometry relative="1" as="geometry" />
        </mxCell>
        <mxCell id="zz8dxL51FPiBjs9owljc-20" value="调用原生人脸检测" style="whiteSpace=wrap;html=1;" vertex="1" parent="zz8dxL51FPiBjs9owljc-1">
          <mxGeometry x="310" y="860" width="120" height="60" as="geometry" />
        </mxCell>
        <mxCell id="zz8dxL51FPiBjs9owljc-37" value="" style="edgeStyle=orthogonalEdgeStyle;rounded=0;orthogonalLoop=1;jettySize=auto;html=1;" edge="1" parent="zz8dxL51FPiBjs9owljc-1" source="zz8dxL51FPiBjs9owljc-26" target="zz8dxL51FPiBjs9owljc-36">
          <mxGeometry relative="1" as="geometry" />
        </mxCell>
        <mxCell id="zz8dxL51FPiBjs9owljc-26" value="是否需要服务端验证" style="rhombus;whiteSpace=wrap;html=1;" vertex="1" parent="zz8dxL51FPiBjs9owljc-1">
          <mxGeometry x="285" y="980" width="170" height="80" as="geometry" />
        </mxCell>
        <mxCell id="zz8dxL51FPiBjs9owljc-49" value="" style="edgeStyle=orthogonalEdgeStyle;rounded=0;orthogonalLoop=1;jettySize=auto;html=1;" edge="1" parent="zz8dxL51FPiBjs9owljc-1" source="zz8dxL51FPiBjs9owljc-36" target="zz8dxL51FPiBjs9owljc-47">
          <mxGeometry relative="1" as="geometry" />
        </mxCell>
        <mxCell id="zz8dxL51FPiBjs9owljc-56" value="" style="edgeStyle=orthogonalEdgeStyle;rounded=0;orthogonalLoop=1;jettySize=auto;html=1;" edge="1" parent="zz8dxL51FPiBjs9owljc-1" source="zz8dxL51FPiBjs9owljc-36" target="zz8dxL51FPiBjs9owljc-55">
          <mxGeometry relative="1" as="geometry" />
        </mxCell>
        <mxCell id="zz8dxL51FPiBjs9owljc-36" value="判断检测结果" style="rhombus;whiteSpace=wrap;html=1;" vertex="1" parent="zz8dxL51FPiBjs9owljc-1">
          <mxGeometry x="300" y="1150" width="140" height="80" as="geometry" />
        </mxCell>
        <mxCell id="zz8dxL51FPiBjs9owljc-52" value="" style="edgeStyle=orthogonalEdgeStyle;rounded=0;orthogonalLoop=1;jettySize=auto;html=1;" edge="1" parent="zz8dxL51FPiBjs9owljc-1" source="zz8dxL51FPiBjs9owljc-47" target="zz8dxL51FPiBjs9owljc-51">
          <mxGeometry relative="1" as="geometry" />
        </mxCell>
        <mxCell id="zz8dxL51FPiBjs9owljc-47" value="是否配置其他验证方式" style="rhombus;whiteSpace=wrap;html=1;" vertex="1" parent="zz8dxL51FPiBjs9owljc-1">
          <mxGeometry x="295" y="1290" width="150" height="80" as="geometry" />
        </mxCell>
        <mxCell id="zz8dxL51FPiBjs9owljc-50" value="失败" style="text;html=1;align=center;verticalAlign=middle;resizable=0;points=[];autosize=1;strokeColor=none;" vertex="1" parent="zz8dxL51FPiBjs9owljc-1">
          <mxGeometry x="370" y="1240" width="40" height="20" as="geometry" />
        </mxCell>
        <mxCell id="zz8dxL51FPiBjs9owljc-61" value="" style="edgeStyle=orthogonalEdgeStyle;rounded=0;orthogonalLoop=1;jettySize=auto;html=1;" edge="1" parent="zz8dxL51FPiBjs9owljc-1" source="zz8dxL51FPiBjs9owljc-51" target="zz8dxL51FPiBjs9owljc-60">
          <mxGeometry relative="1" as="geometry" />
        </mxCell>
        <mxCell id="zz8dxL51FPiBjs9owljc-63" value="" style="edgeStyle=orthogonalEdgeStyle;rounded=0;orthogonalLoop=1;jettySize=auto;html=1;" edge="1" parent="zz8dxL51FPiBjs9owljc-1" source="zz8dxL51FPiBjs9owljc-51" target="zz8dxL51FPiBjs9owljc-62">
          <mxGeometry relative="1" as="geometry" />
        </mxCell>
        <mxCell id="zz8dxL51FPiBjs9owljc-51" value="验证类型" style="rhombus;whiteSpace=wrap;html=1;" vertex="1" parent="zz8dxL51FPiBjs9owljc-1">
          <mxGeometry x="295" y="1450" width="150" height="80" as="geometry" />
        </mxCell>
        <mxCell id="zz8dxL51FPiBjs9owljc-55" value="" style="whiteSpace=wrap;html=1;" vertex="1" parent="zz8dxL51FPiBjs9owljc-1">
          <mxGeometry x="570" y="1160" width="120" height="60" as="geometry" />
        </mxCell>
        <mxCell id="zz8dxL51FPiBjs9owljc-57" value="成功" style="text;html=1;align=center;verticalAlign=middle;resizable=0;points=[];autosize=1;strokeColor=none;" vertex="1" parent="zz8dxL51FPiBjs9owljc-1">
          <mxGeometry x="470" y="1169" width="40" height="20" as="geometry" />
        </mxCell>
        <mxCell id="zz8dxL51FPiBjs9owljc-58" value="yes" style="text;html=1;align=center;verticalAlign=middle;resizable=0;points=[];autosize=1;strokeColor=none;" vertex="1" parent="zz8dxL51FPiBjs9owljc-1">
          <mxGeometry x="375" y="1090" width="30" height="20" as="geometry" />
        </mxCell>
        <mxCell id="zz8dxL51FPiBjs9owljc-59" value="是" style="text;html=1;align=center;verticalAlign=middle;resizable=0;points=[];autosize=1;strokeColor=none;" vertex="1" parent="zz8dxL51FPiBjs9owljc-1">
          <mxGeometry x="375" y="1400" width="30" height="20" as="geometry" />
        </mxCell>
        <mxCell id="zz8dxL51FPiBjs9owljc-60" value="系统验证" style="whiteSpace=wrap;html=1;" vertex="1" parent="zz8dxL51FPiBjs9owljc-1">
          <mxGeometry x="165" y="1540" width="120" height="60" as="geometry" />
        </mxCell>
        <mxCell id="zz8dxL51FPiBjs9owljc-62" value="管理员验证" style="whiteSpace=wrap;html=1;" vertex="1" parent="zz8dxL51FPiBjs9owljc-1">
          <mxGeometry x="460" y="1540" width="120" height="60" as="geometry" />
        </mxCell>
      </root>
    </mxGraphModel>
  </diagram>
</mxfile>
